<?xml version="1.0" encoding="UTF-8" standalone="no"?>
<svg
   xmlns:dc="http://purl.org/dc/elements/1.1/"
   xmlns:cc="http://creativecommons.org/ns#"
   xmlns:rdf="http://www.w3.org/1999/02/22-rdf-syntax-ns#"
   xmlns:svg="http://www.w3.org/2000/svg"
   xmlns="http://www.w3.org/2000/svg"
   xmlns:sodipodi="http://sodipodi.sourceforge.net/DTD/sodipodi-0.dtd"
   xmlns:inkscape="http://www.inkscape.org/namespaces/inkscape"
   height="490.41788"
   width="504.14685"
   id="svg2"
   version="1.1"
   inkscape:version="0.91 r13725"
   sodipodi:docname="Garda-cleaned2.svg">

  <defs
     id="defs492" />
  <sodipodi:namedview
     pagecolor="#ffffff"
     bordercolor="#666666"
     borderopacity="1"
     objecttolerance="10"
     gridtolerance="10"
     guidetolerance="10"
     inkscape:pageopacity="0"
     inkscape:pageshadow="2"
     inkscape:window-width="1184"
     inkscape:window-height="720"
     id="namedview490"
     showgrid="false"
     inkscape:zoom="0.48122226"
     inkscape:cx="-114.70096"
     inkscape:cy="245.20894"
     inkscape:window-x="1280"
     inkscape:window-y="0"
     inkscape:window-maximized="0"
     inkscape:current-layer="svg2" />
  <g
     transform="translate(-41.876404 83.838451)"
     id="g4">
    <g
       transform="translate(144 -45)"
       id="g6">
      <path
         d="m300 210c0 73.45387-67.38115 133-150.5 133-83.118855 0-150.5-59.54613-150.5-133 0-73.45387 67.381145-133 150.5-133 83.11885 0 150.5 59.54613 150.5 133z"
         fill="#fff"
         transform="matrix(1.0664452 0 0 1.2067669 -9.9335552 -48.921053)"
         id="path8" />
      <g
         transform="matrix(.74970753 0 0 .74970753 -436.48595 38.260551)"
         id="g10">
        <path
           d="m-355.52662-73.700521c-41.3141 0-75.09731 31.682986-77.27215 71.5737684-.54372.208812-1.07592.433544-1.61662.646631-1.46541.57602205-2.91511 1.17157605-4.36479 1.77823705-.3786.158777-.75419.324191-1.13157.484977-1.97526.83992795-3.95597 1.69041195-5.90098 2.58650995-4.42468-9.9453047-17.34127-5.33666-19.23669-.606208-19.51793-16.7086664-56.95953-4.738632-88.2649-2.58650995-4.96053 29.08086055-13.0442 58.03553955.32296 83.73847355-10.12236 6.081817-7.77893 21.490562 1.13157 24.652732-.0484.10335-.0726.21987-.12098.32332-.0877.18543-.15544.37913-.24253.5658-.0424.0926-.0774.19025-.12098.2829-.0926.20317-.19052.40381-.28305.60622-.0484.10923-.11192.21369-.16148.32331-.34292.74597-.67616 1.47227-1.01061 2.22279-.0424.0937-.0792.18904-.12099.2829-.0123.0268-.0303.0541-.0424.0808 0 .011 0 .0291 0 .0403-.0181.044-.0617.0771-.0811.12123-.1107.25428-.21229.51359-.32296.76787-.0362.0827-.0852.15985-.1216.24249-.0362.078-.0484.16457-.0804.24248-.14455.33639-.30301.66904-.44453 1.01037-.18567.43148-.38344.86032-.56609 1.29325-.0181.0393-.0243.0818-.0424.12123 0 .011 0 .0292 0 .0403-.1216.29573-.24132.59333-.36348.88912 0 .011 0 .029 0 .0403-.23044.55554-.50138 1.09913-.72757 1.65698-.29272.72279-.56307 1.4557-.84853 2.18238-.25824.65745-.51588 1.31975-.76809 1.98029-40.11661 1.92878-72.05882 35.79222-72.05882 77.27222 0 41.41147 31.83335 75.20095 71.85683 77.23177.0303.0842.0895.15832.12098.24248.28184.74102.55945 1.48569.84914 2.22279.0544.14665.10348.29807.16148.44455.0424.10679.0786.21665.12099.32333.0242.0558.0605.10567.0811.16165.0605.14632.10286.2984.16148.44455.0484.12286.11193.24117.16209.36374.0702.17405.13125.35156.202.52538.33929.83764.70095 1.67328 1.05053 2.50569 0 .011 0 .0289 0 .0403.006.0165.0362.0238.0424.0404.0424.10593.0762.2175.12099.3233.17237.40649.35138.80921.52557 1.21244.0242.0555.0544.10629.0811.16165.12821.30789.23224.62726.36347.92953.0362.0829.0846.15945.12099.24249.11192.25437.21108.51424.32356.76787.006.0163.0362.0243.0424.0403.0122.0268.0303.0541.0424.0808 0 .011 0 .0291 0 .0403.0424.0941.0798.18896.1216.2829.18145.40564.378.80595.5655 1.21243.1524.33609.2909.67519.44451 1.01037.0122.0274.0302.0534.0424.0808.0484.10886.11193.21486.16148.3233.13729.29525.2643.59514.40461.88912.0303.0659.0484.13635.0805.20207.10348.2176.22135.42842.32357.64664-6.42231 5.41626-10.1787 17.45947-1.17209 24.69315-13.36717 25.70293-5.28409 54.65761-.32357 83.73849 31.30597 2.15211 68.74757 14.12213 88.26488-2.58652 1.89543 4.73045 14.81202 9.3391 19.2373-.60621 1.32208.60917 2.66472 1.19494 4.00132 1.77822 2.98648 1.3047 5.99654 2.54406 9.05256 3.71812 2.4222 39.66085 36.08626 71.08879 77.23163 71.08879 40.92098 0 74.40361-31.08814 77.15119-70.44216.24434-.0915.48384-.19057.72758-.2829 1.00577-.38038 1.99218-.77724 2.9907-1.17201.67193-.26648 1.35171-.53529 2.02061-.8083.0671-.0273.13488-.0534.20201-.0808 1.47932-.60559 2.94293-1.22288 4.40532-1.85906.12221-.0532.24131-.10825.36348-.16166.1216-.053.24253-.10837.36409-.16166 1.21382-.53346 2.4355-1.06322 3.63722-1.61656 4.42529 9.9453 17.34188 5.33666 19.23731.60621 19.51731 16.70865 56.95892 4.73863 88.26489 2.58652 4.96052-29.08089 13.04359-58.03556-.32357-83.73849 9.0066-7.23368 5.25022-19.27689-1.17209-24.69315.11609-.24456.24857-.48103.36349-.72746.0181-.0386.0242-.0828.0424-.12123.13668-.29478.26852-.59362.404-.88912.41307-.89562.84913-1.80374 1.25314-2.70776.0362-.0773.0484-.16522.0811-.24249.006-.0167.0302-.0236.0424-.0403.12399-.28165.24132-.56674.36409-.84871.0362-.0823.0852-.1601.12099-.24249.30542-.69859.59149-1.40106.88904-2.10154.0424-.10641.0774-.21744.1216-.32332.0302-.0669.0544-.13515.0805-.20206.006-.0164.0362-.0241.0424-.0403 0-.007 0-.0322 0-.0404.0545-.13342.1058-.27059.16147-.40413.0623-.1638.13547-.32325.202-.48498.22861-.55066.46328-1.10405.68705-1.65699.0424-.10629.0786-.21697.1216-.32332.0889-.21758.19475-.42813.28244-.64662.0181-.0512.0181-.11046.0424-.16166.0242-.0556.0605-.10604.0811-.16166.006-.0162.0362-.0241.0424-.0403.0181-.0396.0242-.0816.0424-.12123.0998-.25376.18386-.51403.28305-.76788.28122-.71582.57515-1.42239.84852-2.14196.0545-.14755.1058-.29684.16209-.44456 39.23784-2.86926 70.19968-36.27474 70.19968-77.11053 0-40.8921-31.04651-74.36224-70.36177-77.15095 0-.005-.0362.005-.0424 0-.26369-.70295-.53524-1.40244-.80861-2.10155 0-.011 0-.0289 0-.0403-.26066-.66373-.5413-1.31983-.80801-1.98031-.25098-.62024-.51166-1.24166-.76808-1.85906-.0122-.0277-.0302-.053-.0424-.0808-.11131-.26769-.21107-.54125-.32295-.80828-.34534-.82166-.69612-1.64879-1.05113-2.46528-.0362-.0778-.0484-.16529-.0805-.24249-.0362-.0827-.0852-.15981-.1216-.24248-.62476-1.42778-1.28519-2.83193-1.93957-4.2435-.0424-.0927-.0774-.19033-.1216-.28291-.14273-.30682-.25946-.62348-.40401-.92953-.0181-.0437-.0605-.0775-.0804-.12123 10.80236-2.17136 12.44953-20.866661 1.17149-24.693162 13.36716-25.702931 5.28409-54.657612.32357-83.73848555-31.30537-2.15210905-68.74758-14.12213145-88.2649 2.58652295-1.40868-7.6508823-14.81202-9.3390967-19.2373.60622-1.32207-.609171-2.66472-1.194954-4.00071-1.778238-1.65109-.72099795-3.29854-1.41961195-4.97141-2.10154695-.15059-.06147-.29333-.140984-.44453-.202065-1.51198-.61253905-3.03848-1.19931305-4.5668-1.77822505-.0792-.03012-.16268-.05082-.24252-.08082-.14696-.0556-.29695-.106414-.44452-.161654-2.48329-39.6033654-36.08808-70.9675234-77.19111-70.9675234z"
           transform="matrix(.77043442 0 0 .77043442 1055.063 69.816699)"
           id="path12" />
        <path
           d="m780.3125 19.5c-13.3193.146262-26.49887 5.459281-36.15625 14.625-7.91423 7.502829-13.46925 17.5169-15.375 28.28125-.43381 2.470262-.5843 4.987978-.9375 7.46875-.40072 1.951754-1.91271 3.548337-3.71875 4.3125-.88158.365632-1.78165.620178-2.65625 1-2.4314.989644-15.27631 6.551001-21.6875 9.78125l-.03125-.03125-.5.3125c-.28746.147438-.65256.302441-.90625.4375l.0312.0625-17.5625 10.1875c-6.07422 2.826049-10.11473-3.327957-10.6875-5.15625-1.62475-3.962763 3.41558-4.711709 5.125-.28125 1.72981 3.230937 8.21524 1.752342 9.84375.9375 2.90197-1.625665 7.00127-3.846071 6.65625-7.5625.0778-5.997932-1.843-10.190759-7.3125-11.21875l.0312-.0625c-2.31089-.577955-4.626-.553934-4.96865-.59375-1.82875-.204375-3.66103-.305442-5.5-.3125-3.06495-.01176-6.14016.212292-9.1875.46875-9.2392.789445-18.39357 2.350894-27.59375 3.46875l3.375 3.4375c-.00026.0092 0 .02201 0 .03125l.0937.0625 6.8125 6.5c-1.19832-5.162444 17.77543-8.9326 25.15625-9.9375 2.13426-.03567 4.25646-.0017 6.375.21875.18746.02111 2.21496.393016 3 .53125 2.51227.933858 5.29712 2.145825 4.5625 6.0625-1.1299 2.46703-6.51893 4.539621-5.53125.96875-.39911-2.511037-.92403-2.493744-2.78125-3.46875-7.81771-2.421117-10.25731.948239-12.84375 4.5-4.12624 5.668568-.83651 24.33756 17.21875 16.71875l18.3438-12.125c4.51796-2.382331 19.52181-9.313742 22-10.28125 1.28558-.460308 2.58701-.889465 3.78125-1.5625 2.19464-1.207856 3.95592-3.267024 4.65625-5.6875.876-3.246237.7363-6.639417 1.5-9.90625 1.69934-7.895217 5.48195-15.325015 10.78125-21.40625 9.06654-10.427426 22.74182-16.653435 36.5625-16.8125.1449-.000462.29212 0 .4375 0 1.01531.0018 2.01687.04582 3.03125.09375 10.47977.479686 20.7595 4.406804 28.90625 11 8.82517 7.114969 15.0024 17.492929 16.9375 28.6875.20642 1.096869.35502 2.199517.4375 3.3125.096 1.282983.16265 2.59643.5 3.84375.59317 2.204871 1.87365 4.272885 3.78125 5.5625 3.11212 1.802142 6.50096 3.028414 9.8125 4.40625.4535.193688.91833.399271 1.375.59375l1.03125-3.84375c-3.26012-1.38713-6.55976-2.672946-9.75-4.21875-1.63363-1.080576-2.59567-3.027874-2.65625-4.96875-.72223-11.965875-5.97468-23.526396-14.28125-32.125-5.13109-5.317035-11.41025-9.507455-18.25-12.3125-5.17862-2.120876-10.69585-3.424621-16.28125-3.8125-1.56142-.115374-3.12188-.189888-4.6875-.1875-.10437.00015-.20812 0-.3125 0zm-146.5 58.8125c-1.61803 8.910772-3.35793 17.814061-3.84375 26.875-.33528 6.17478-.0958 15.91247 1.5625 21.96875.0194.0709.0427.14884.0625.21875 1.22051 4.57705 5.13633 6.34879 10.65625 6.5 4.493-.56796 6.10235-3.50971 7.84375-6.34375.5042-2.3601 2.9717-7.28174-.5625-9.90625-4.3579-1.88675-3.394-6.87702.5-5.09375 1.8037.64605 6.96995 3.47932 4.71875 10.875l-11.5625 18.21875-.1875.28125c-1.03917 1.36608-5.89282 9.96358-5.71875 10.375-2.14524 5.49356-4.61279 10.86379-6.875 16.3125-1.11037 1.92841-3.28998 3.12962-5.5 3.1875-4.41724.13014-8.80408 1.05428-13 2.40625-8.76693 2.86894-16.73083 8.13918-22.78125 15.09375-4.97453 5.7074-8.7163 12.47765-10.9375 19.71875-1.38667 4.52112-2.17597 9.20848-2.3125 13.9375-.33315 10.5477 2.39827 21.21467 7.96875 30.1875 5.83747 9.43815 14.6698 17.04235 25 21.15625 5.35522 2.13108 11.06308 3.30623 16.8125 3.65625 2.13173.26134 4.05411 1.71967 5 3.625.42074.86347.63004 1.80132 1 2.6875 1.18287 3.08386 2.69632 6.01368 3.875 9.09375l3.40625-2.1875c-.99835-2.53202-2.22965-4.97761-3.25-7.5-.3243-.7672-.61454-1.58138-.875-2.375-.57872-1.7894-1.63105-3.4019-3.03125-4.65625-1.48266-1.32532-3.32986-2.28655-5.3125-2.53125-4.11437-.36994-8.25162-.94474-12.21875-2.125-10.27942-3.07352-19.36525-9.79367-25.5-18.5625-5.06493-7.25402-8.07767-15.90167-8.78125-24.71875-.56288-6.76938.31281-13.63775 2.5-20.0625 2.36472-6.97487 6.28404-13.42436 11.4375-18.6875 4.74108-4.85603 10.54781-8.66891 16.875-11.125 2.77476-1.06902 5.66383-1.90714 8.59375-2.4375 1.60428-.28176 3.21338-.48871 4.84375-.53125 1.96679-.0337 3.93035-.4795 5.65625-1.4375 1.53998-.86154 2.95698-2.07299 3.78125-3.65625 2.61913-5.37464 4.77197-10.95671 7.15625-16.4375.16227-.6022 4.92935-8.99074 5.9375-10.5625h.0625l13.1875-18.28125c8.3409-17.73324-10.16961-21.73798-16-17.84375-3.6532 2.44107-7.13505 4.716-5.03125 12.625.8993 1.89503.85086 2.40617 3.34375 2.90625 3.60781-.84284 1.3231 4.47054-1.1875 5.5-4.074.59515-5.12605-2.45257-5.96875-5.0625-.91622-3.18004-1.25252-6.61706-1.34375-10.03125-.00084-.0315.0008-.0623 0-.0937 1.20368-8.01486 4.85744-25.267927 9.78125-24.125l-6.5-6.84375-.0625-.0625zm294.6875 79.59375l-3.34375 2.15625c.74335 1.74455 1.54813 3.4734 2.28125 5.21875.65887 1.45099 1.10276 2.99959 1.71875 4.46875 1.18865 2.94986 3.93132 5.25439 7.09375 5.75 4.38836.43215 8.77144 1.11208 12.96875 2.5 9.5679 3.16719 18.02451 9.46023 23.90625 17.625 6.08816 8.44922 9.33024 18.87869 9.34375 29.28125.0279 9.63025-2.90542 19.22587-8.15625 27.28125-2.75892 4.24768-6.17697 8.04668-10.125 11.21875-5.7592 4.64382-12.61074 7.92304-19.84375 9.5-1.18492.26949-2.38227.48655-3.59375.59375-1.78741.15563-3.60338.21451-5.3125.8125-2.00314.7102-3.89246 1.95678-5.03125 3.78125-2.21095 3.92635-3.60213 8.22447-5.46875 12.3125-.44965 1.00615-1.89973 4.6642-2.4375 5.625l4.875-1.625c.069-.13735.15343-.26745.21875-.40625 2.13314-4.33835 3.77811-8.88205 5.78125-13.28125.81122-1.45087 2.32154-2.43041 3.90625-2.84375 1.16115-.30792 2.37805-.22238 3.5625-.375 2.15784-.23967 4.26935-.69497 6.375-1.21875 9.29905-2.38708 17.90628-7.44259 24.5-14.40625 6.75867-7.14502 11.49642-16.17947 13.53125-25.8125.90721-4.29664 1.27457-8.70559 1.125-13.09375-.32337-9.28002-2.99133-18.5-7.875-26.40625-5.96282-9.69019-15.09409-17.47192-25.75-21.53125-4.96475-1.89525-10.20164-2.99475-15.5-3.34375-2.02365-.2491-3.80109-1.74238-4.53125-3.625-.26885-.71255-.49375-1.4493-.78125-2.15625-1.04709-2.70418-2.32968-5.32233-3.4375-8zm-214.1875 209.3125l.34375 4.5625c.79967.37781 1.58621.77466 2.40625 1.09375 3.03057 1.31304 6.0893 2.51242 9.125 3.8125 1.30653.83616 2.00271 2.43811 1.90625 3.96875.028 1.30028.16199 2.58518.3125 3.875 1.35219 10.95939 6.41625 21.41975 14.125 29.3125 8.56936 8.80836 20.23465 14.55436 32.46875 15.875 11.85947 1.30636 24.17755-1.28696 34.34375-7.5625 8.69098-5.34438 15.87324-13.20355 20.1875-22.46875 2.7552-5.91791 4.29893-12.36406 4.71875-18.875.28517-2.03496 1.78641-3.80884 3.6875-4.53125.67656-.22887 1.36354-.45878 2.03125-.71875 2.81248-1.06318 5.50451-2.42199 8.3125-3.5l-2.1875-3.375c-1.39333.54773-2.75727 1.14891-4.125 1.75-1.66625.8239-3.4425 1.42224-5.1875 2.0625-2.95695.97996-5.35249 3.4847-6.15625 6.5-.1794.59994-.20857 1.25602-.28125 1.875-.47062 4.45114-1.25524 8.87541-2.78125 13.09375-3.5282 9.82906-10.39069 18.40574-19.125 24.09375-8.70403 5.6641-19.19455 8.43171-29.5625 8-10.11167-.4205-20.0486-4.07217-28.09375-10.1875-5.98659-4.52603-10.85959-10.49044-14.125-17.25-2.27619-4.71995-3.77296-9.81719-4.34375-15.03125-.21806-1.59698-.12388-3.22383-.40625-4.8125-.38162-1.98563-1.42473-3.91814-3.125-5.0625-3.74114-2.11674-7.91662-3.33083-11.78125-5.1875-.43533-.22816-2.24281-1.09687-2.6875-1.3125z"
           fill="#b3b3b3"
           transform="translate(-.00002116 -.00000017)"
           id="path14" />
        <path
           d="m647.79182 142.22797c0 5.05202-3.51041 9.14749-7.84071 9.14749-4.3303 0-7.84071-4.09547-7.84071-9.14749 0-5.05202 3.51041-9.1475 7.84071-9.1475 4.3303 0 7.84071 4.09548 7.84071 9.1475z"
           fill="#b3b3b3"
           transform="matrix(.41252583 0 0 .37755098 368.30065 89.743099)"
           id="path16" />
        <path
           d="m-215.34628 1.9674495c3.9782-.0153 7.9697.27555 11.925.60842 11.9922 1.02467 23.8743 3.05139 35.8159 4.50233l-4.3807 4.4617715c.0004.0117 0 .0286 0 .0405l-.1216.0811-8.8424 8.4368c1.5554-6.7007-23.072-11.5942412-32.652-12.8985715-2.7702-.0463-5.5248-.003-8.27461.28393-.2433.0274-2.8749.51012-3.8939.6895503-3.2608 1.2121206-6.8755 2.7852112-5.922 7.8689412 1.4666 3.20213 8.4614 5.89228 7.1794 1.2574.518-3.25925 1.1994-3.23681 3.61-4.50233 10.14711-3.1425303 13.31371 1.23079 16.67081 5.84087 5.3557 7.35762 1.0857 31.58939-22.34941 21.70041l-23.80969-15.73787c-4.15391-2.19035-14.99081-7.23966-22.18721-10.50544l-.56787-5.0296217c3.96889-.011177 18.83027 7.3658817 24.33698 10.1403817l.041-.0405.649.40561c.3731.19137.847.39256 1.1763.56786l-.041.0811 22.79549 13.22306c7.88421 3.66813 13.12861-4.31959 13.87211-6.69265 2.1089-5.14355-4.4333-6.11565-6.6521-.36505-2.2452 4.19364-10.66311 2.27448-12.77691 1.21684-3.7667-2.11007-9.0874-4.99208-8.6396-9.81589-.101-7.78513 2.3922-13.2272915 9.4914-14.5615915l-.04-.0811c2.9995-.75017 6.0044-.71899 6.4492-.77067 2.37361-.26528 4.75191-.39645 7.13881-.40561zm52.1621 8.5990515c2.1001 11.5659 4.3585 23.12209 4.9891 34.88291.4351 8.01468.1243 20.6539-2.0281 28.51476-.025.092-.055.19319-.081.28393-1.5842 5.94087-6.6668 8.24053-13.8315 8.4368-5.8318-.7372-7.9207-4.5555-10.181-8.23399-.6544-3.06334-3.8571-9.45148.7301-12.85801 5.6565-2.44894 4.4053-8.92616-.649-6.61153-2.3411.83856-9.0467 4.51605-6.1247 14.11542l15.0077 23.64737.2434.36505c1.3488 1.77313 7.6487 12.932429 7.4228 13.466439.7487 1.91735 3.13856 7.22705 3.93446 9.12635l-4.05622 3.04211c-.6207-1.47509-3.82334-8.06454-4.46174-9.53196-.2106-.78164-6.3981-11.669709-7.7067-13.709809h-.081l-17.117-23.72849c-10.8262-23.0172 13.1999-28.21523 20.7675-23.16064 4.7418 3.16844 9.2611 6.12122 6.5304 16.38686-1.1672 2.45969-1.1044 3.12313-4.3401 3.77222-4.6828-1.09398-1.7173 5.80263 1.5414 7.13883 5.2879.77249 6.6534-3.18336 7.7472-6.57097 1.1893-4.12759 1.6258-8.58873 1.7442-13.02025 0-.0409 0-.0809 0-.12162-1.5624-10.40304-6.3048-32.79699-12.6958-31.3135l8.4368-8.88297.081-.0811 4.1779-5.35413z"
           fill="#b3b3b3"
           transform="matrix(.77043442 0 0 .77043442 1055.063 69.816699)"
           id="path18" />
        <path
           d="m647.79182 142.22797c0 5.05202-3.51041 9.14749-7.84071 9.14749-4.3303 0-7.84071-4.09547-7.84071-9.14749 0-5.05202 3.51041-9.1475 7.84071-9.1475 4.3303 0 7.84071 4.09548 7.84071 9.1475z"
           fill="#b3b3b3"
           transform="matrix(.41252583 0 0 .37755098 440.55065 20.7431)"
           id="path20" />
        <path
           d="m647.79182 142.22797c0 5.05202-3.51041 9.14749-7.84071 9.14749-4.3303 0-7.84071-4.09547-7.84071-9.14749 0-5.05202 3.51041-9.1475 7.84071-9.1475 4.3303 0 7.84071 4.09548 7.84071 9.1475z"
           fill="#b3b3b3"
           transform="matrix(-.41252583 0 0 .37755098 1195.7934 89.743101)"
           id="path22" />
        <path
           d="m647.79182 142.22797c0 5.05202-3.51041 9.14749-7.84071 9.14749-4.3303 0-7.84071-4.09547-7.84071-9.14749 0-5.05202 3.51041-9.1475 7.84071-9.1475 4.3303 0 7.84071 4.09548 7.84071 9.1475z"
           fill="#b3b3b3"
           transform="matrix(-.41252583 0 0 .37755098 1123.5434 20.743102)"
           id="path24" />
        <path
           d="m-511.24073 13.697084c-4.83572 1.45697-9.73944 2.734431-12.49295 8.355675l8.84241.811231zm-13.46643 14.399343l1.25747 11.235544 11.60047 2.393131-1.17622-11.560037zm-6.65209.811231c-5.62125 2.753537-6.93933 7.657277-8.3963 12.492951l9.20753-3.691099zm29.69104 16.143489c-4.28693 0-7.74732 3.394293-7.74732 7.544445 0 4.150152 3.46039 7.503883 7.74732 7.503883 4.28693 0 7.78781-3.353731 7.78781-7.503883 0-4.150152-3.50088-7.544445-7.78781-7.544445z"
           fill="#b3b3b3"
           transform="matrix(.77043442 0 0 .77043442 1055.063 69.816699)"
           id="path26" />
        <path
           d="m-169.27065 41.923669c-1.45697-4.8357-2.73444-9.7394-8.35568-12.4929l-.81123 8.8424zm-14.39935-13.4664l-11.23554 1.2575-2.39313 11.6005 11.56003-1.1763zm-.81123-6.6521c-2.75354-5.6212-7.65728-6.9393-12.49295-8.3963l3.6911 9.2076zm-16.14349 29.6911c0-4.287-3.39429-7.7474-7.54444-7.7474-4.15015 0-7.50389 3.4604-7.50389 7.7474 0 4.2869 3.35374 7.7878 7.50389 7.7878 4.15015 0 7.54444-3.5009 7.54444-7.7878z"
           fill="#b3b3b3"
           transform="matrix(.77043442 0 0 .77043442 1055.063 69.816699)"
           id="path28" />
        <path
           d="m-553.35918 342.2748c-.0153 3.9782.27554 7.9697.60842 11.925 1.02467 11.9922 3.05138 23.8743 4.50233 35.8159l4.46177-4.3807c.0117.0004.0287 0 .0405 0l .0811-.1216 8.4368-8.8424c-6.7007 1.5554-11.59424-23.072-12.89857-32.652-.0463-2.7702-.003-5.5248.28393-8.2746.0274-.2433.51012-2.8749.68955-3.8939 1.21212-3.2608 2.78521-6.8755 7.86894-5.922 3.20212 1.4666 5.89228 8.4614 1.2574 7.1794-3.25925.518-3.23681 1.1994-4.50233 3.61-3.14254 10.1471 1.23079 13.3137 5.84086 16.6708 7.35763 5.3557 31.5894 1.0857 21.70042-22.3494l-15.73787-23.8096c-2.19035-4.1539-7.23966-14.9909-10.50544-22.1872l-4.46177 2.8393c2.82813 6.4837 6.79802 15.4231 9.57252 20.9298l-.0405.041.40562.6489c.19137.3732.39256.847.56786 1.1763l.0811-.041 13.22306 22.7956c3.66813 7.8842-4.31959 13.1286-6.69265 13.872-5.14355 2.1089-6.11566-4.4333-.36506-6.652 4.19365-2.2453 2.27449-10.6632 1.21685-12.7769-2.11007-3.7667-4.99208-9.0875-9.81589-8.6396-7.78513-.101-13.22729 2.3921-14.56159 9.4914l-.0811-.04c-.75017 2.9994-.719 6.0045-.77067 6.4493-.26528 2.3736-.39645 4.7519-.40561 7.1388zm8.59904 52.1621c11.56591 2.1001 23.1221 4.3585 34.88292 4.9891 8.01467.4351 20.65389.1243 28.51476-2.0281.092-.025.19319-.055.28393-.081 5.94087-1.5842 8.24053-6.6668 8.4368-13.8315-.7372-5.8318-4.5555-7.9207-8.23399-10.181-3.06334-.6544-9.45148-3.8571-12.85801.7301-2.44894 5.6565-8.92616 4.4053-6.61153-.649.83855-2.3411 4.51605-9.0467 14.11541-6.1247l23.64738 15.0077.36505.2434c1.77313 1.3488 13.35832 6.81719 13.89233 6.93606 1.91735.7487 4.93532 1.86087 6.83461 2.65677l.93291-5.17166c-1.47509-.6207-.47952-.37561-1.94694-1.01401-.78164-.2106-15.27968-6.96596-17.31978-8.27456v-.081l-23.7285-17.117c-23.01719-10.8262-28.21522 13.1999-23.16063 20.7675 3.16843 4.7418 6.12122 9.2611 16.38686 6.5304 2.45969-1.1672 3.12313-1.1044 3.77222-4.3401-1.09398-4.6828 5.80262-1.7173 7.13883 1.5414.77249 5.2879-3.18336 6.6534-6.57097 7.7472-4.12759 1.1893-8.58874 1.6258-13.02025 1.7442-.0409 0-.081 0-.12162 0-10.40304-1.5624-32.79699-6.3048-31.3135-12.6958l-8.88298 8.4368-.0811.081-5.35412 4.1779zm2.55538-35.2885c1.45697 4.8357 2.73443 9.7394 8.35568 12.4929l.81123-8.8424zm14.39934 13.4664l11.23555-1.2574 2.39313-11.6006-11.56004 1.1763zm.81123 6.6521c2.75354 5.6212 7.65728 6.9393 12.49296 8.3962l-3.6911-9.2075zm16.14349-29.6911c0 4.287 3.3943 7.7473 7.54445 7.7473 4.15015 0 7.50388-3.4603 7.50388-7.7473 0-4.2869-3.35373-7.7878-7.50388-7.7878-4.15015 0-7.54445 3.5009-7.54445 7.7878z"
           fill="#b3b3b3"
           transform="matrix(.77043442 0 0 .77043442 1055.063 69.816699)"
           id="path30" />
        <path
           d="m-214.93979 400.03236c3.9782.0153 7.9697-.27554 11.925-.60842 11.99221-1.02467 23.87431-3.05138 35.81591-4.50233l-4.3807-4.46177c.0004-.0117 0-.0287 0-.0405l-.1216-.0811-8.8424-8.4368c1.5554 6.7007-23.07201 11.59424-32.65201 12.89857-2.7702.0463-5.5248.003-8.2746-.28393-.2433-.0274-2.8749-.51012-3.8939-.68955-3.2608-1.21212-6.8755-2.7852-5.922-7.86893 1.4666-3.20213 8.4614-5.89229 7.1794-1.25741.518 3.25925 1.1994 3.23681 3.61 4.50233 10.1471 3.14254 13.3137-1.23079 16.6708-5.84086 5.3557-7.35763 1.0857-31.5894-22.3494-21.70042l-23.8096 15.73787c-4.1539 2.19035-17.6009 8.64505-24.7972 11.91083l5.42062 3.42923c6.4837-2.82813 15.45178-7.17087 20.95848-9.94537l.041.0405.6489-.40562c.3732-.19137.847-.39256 1.1763-.56786l-.041-.0811 22.7956-13.22306c7.8842-3.66813 13.1286 4.31959 13.872 6.69265 2.1089 5.14356-4.4333 6.11566-6.652.36506-2.2453-4.19365-10.6632-2.27449-12.7769-1.21685-3.7667 2.11007-9.0875 4.99208-8.6396 9.81589-.101 7.78513 2.3921 13.22729 9.4914 14.56159l-.04.0811c2.9994.75017 6.0045.719 6.4493.77067 2.3736.26528 4.7519.39645 7.1388.40561zm52.16211-8.59904c2.1001-11.56591 4.3585-23.1221 4.9891-34.88292.4351-8.01467.1243-20.65389-2.0281-28.51476-.025-.092-.055-.19319-.081-.28393-1.5842-5.94087-6.6668-8.24053-13.8315-8.43679-5.8318.73719-7.9207 4.55549-10.181 8.23399-.6544 3.06333-3.8571 9.45147.7301 12.858 5.6565 2.44894 4.4053 8.92616-.649 6.61153-2.3411-.83855-9.04671-4.51605-6.1247-14.11541l15.0077-23.64737.2434-.36506c1.3488-1.77313 7.6487-12.93242 7.4228-13.46643.7487-1.91734 1.5161-3.81988 2.312-5.71917l-4.68493-1.33853c-.6207 1.47509-1.57217 2.95378-2.21057 4.4212-.2106.78164-6.3981 11.66971-7.7067 13.7098h-.081l-17.11701 23.7285c-10.8262 23.01719 13.19991 28.21522 20.76751 23.16063 4.7418-3.16843 9.2611-6.12122 6.5304-16.38686-1.1672-2.45969-1.1044-3.12313-4.3401-3.77222-4.6828 1.09398-1.7173-5.80262 1.5414-7.13883 5.2879-.77249 6.6534 3.18336 7.7472 6.57097 1.1893 4.12759 1.6258 8.58874 1.7442 13.02025 0 .0409 0 .081 0 .12162-1.5624 10.40304-6.3048 32.79699-12.6958 31.3135l8.4368 8.88298.081.0811 4.1779 5.35412zm-35.28851-2.55538c4.8357-1.45697 9.73941-2.73443 12.49291-8.35567l-8.84241-.81123zm13.46641-14.39934l-1.2574-11.23555-11.60061-2.39313 1.1763 11.56004zm6.6521-.81123c5.6212-2.75354 6.9393-7.65728 8.3962-12.49295l-9.2075 3.69109zm-29.69111-16.14349c4.287 0 7.7473-3.3943 7.7473-7.54445 0-4.15015-3.4603-7.50388-7.7473-7.50388-4.2869 0-7.7878 3.35373-7.7878 7.50388 0 4.15015 3.5009 7.54445 7.7878 7.54445z"
           fill="#b3b3b3"
           transform="matrix(.77043442 0 0 .77043442 1055.063 69.816699)"
           id="path32" />
        <g
           transform="translate(558.61435 11.313708)"
           id="g34">
          <path
             d="m285.44141 212.33513c0 37.38477-30.92946 67.69112-69.08289 67.69112-38.15343 0-69.08289-30.30635-69.08289-67.69112 0-37.38477 30.92946-67.69112 69.08289-67.69112 38.15343 0 69.08289 30.30635 69.08289 67.69112z"
             fill="#3737c8"
             transform="matrix(.9918186 0 0 1.0111108 8.0871073 -2.2673531)"
             id="path36" />
          <path
             d="m223.5956 143.36335c-9.24337.12753-17.16598 8.37483-17.375 17.46875-5.45793-2.21622-11.38009-1.91792-17.15625-2.21875-4.62259 7.71411-9.10014 15.50077-13.71875 23.21875 9.42501-1.63526 18.47095-5.37305 27.96875-6.21875-8.37015 6.47247-14.96964 18.63854-9.5 29 2.67425 2.93839-2.21421 5.8493-1.84375 9.375-1.32849 11.97701 5.74073 25.34794 18.1875 27.875-12.49469 1.09266-24.3258 15.18314-18.3125 27.46875 6.78643 14.46881 26.5818 17.25364 40.1565 11.37144 12.50708-3.96383 22.61325-15.35953 22.4685-28.93394.70329-6.10629-3.04828-11.75229-5.53125-16.53125 6.64101-14.43793 6.88231-32.96981-3.96875-45.375-4.14154-5.27233-9.73486-9.67986-14.53125-13.875 7.56329.43216 17.99882-1.61375 19.34375-10.53125-1.43117-4.64178-6.84066.82793-10.0625.75-7.0642 1.23945-15.20641 2.16162-21.96875-.5625-2.88822-5.96558 2.8304-15.53591 9.53125-12.96875 2.2709 1.67816-1.91191 4.22032-.875 6.71875.20262 5.85309 8.64926 6.70045 10.90625 1.65625 4.26643-8.68871-4.47765-18.97214-13.71875-17.6875zm-8.0625 34.25c6.48092 11.38679 21.37879 19.18845 19.96875 34.0625-.27357 3.52051-1.29887 6.93225-2.59375 10.1875-1.95617-2.0623-6.94281-3.32557-7.3125-5.625 4.7999-8.56569-4.63159-18.77567-13.65625-17.875-2.74941-.45433-6.5321 1.44344-8.4375 1.1875-2.28769-9.09737 4.47134-17.75455 11.875-22.21875zm-3.03125 29.5625c2.09784-.65824 5.05858 2.13979 2.375 3.09375-.71479-1.05399-6.78173-3.16132-2.375-3.09375zm-9.15625 9.4375c5.36538 5.67355 13.07791 8.16749 19.125 12.96875-8.50818 1.57168-18.84815-3.63565-19.21875-13.0625l.0937.0937zm13.875 26.53125c5.39111.64488 11.16813-.01 16.3125.28125 4.90749 8.92295 1.13136 20.73114-8.0625 25.0625-7.49853 5.72352-19.87386 2.18843-23.625-6.25-.86953-4.39865 4.46316-8.66948 8.4375-6.28125 5.09666 1.74605 12.84816-2.49892 9.9375-8.53125-.73223-1.85462-2.11182-3.43584-3.875-4.375l.875.0937z"
             id="path38" />
          <path
             d="m216.10547 166.92587c-5.73558-15.35966 13.0931-23.93836 15.05653-12.84233-2.35678 2.34714-2.90231 5.94358-.25305 7.27521 7.7294.8123 6.00917-15.66109-5.69365-15.81568-11.15133-.32872-17.55057 10.79906-15.05653 19.42166z"
             fill="#b3b3b3"
             stroke="#000"
             id="path40" />
          <path
             d="m216.95751 173.16351c7.19447 16.74159 30.52641 23.26352 16.81979 52.60659l11.26013 10.43617c16.67923-38.96972-10.0989-51.66269-22.53297-64.2953l-6.26269.5368 0 0"
             fill="#b3b3b3"
             stroke="#000"
             id="path42" />
          <path
             d="m191.9375 160.90625l-9.5 16.65625c9.051-2.1018 16.90261-5.66732 28.09375-5.125.2925.009.69403.0206 1 .0312-12.17627 9.55015-13.83647 14.72951-15.09375 18.21875-2.21968 10.96969 1.7096 12.11544 3.28125 16.96875l3.8125-4.625c-3.75809-5.15569-1.99392-13.11317 1.5-19.28125 2.5506-3.68178 6.92749-7.38072 12.28125-11.0625 7.67261.31718 16.72928.59801 21.8125-.53125 3.61383-1.0648 5.83289-2.5724 7.09375-6.03125-9.1414 4.09666-15.35539 3.49644-23.90625 3.09375-4.71108.009-14.97375-7.82649-24.0625-8.0625l-6.3125-.25z"
             fill="#b3b3b3"
             stroke="#000"
             stroke-width="1.0086931"
             id="path44" />
          <path
             d="m202.44072 208.53936c1.69329 5.11201 7.13417 9.56268 14.55043 13.66475 20.19176 10.53134 32.66959 39.00543 5.44059 50.48365-10.64345 5.03835-33.56253-10.40508-15.56263-20.75017 3.83794.95917 8.74948 2.73756 11.51382-.88568 1.10233-3.32793-2.7004-10.86639-14.67695-4.42838-6.8165 4.68859-10.76174 11.65648-9.23636 17.71355.88708 5.60132 7.38363 18.25721 29.22738 15.94221 16.27788-4.22502 27.64735-12.65724 27.45602-30.99873-1.45216-18.40895-27.60974-29.45792-45.16959-43.01866z"
             fill="#b3b3b3"
             stroke="#000"
             id="path46" />
          <path
             d="m211.8125 200.625c-10.86984.33737-17.3111 9.65921-15.96875 17.6875.005.0302-.005.0636 0 .0937 2.54296 22.81098 20.2884 22.81409 39.0625 21.6875-1.66695-3.28945-3.91324-6.44468-6.59375-9.28125-9.83811 2.88053-23.74813 1.23043-26.59375-13.1875-1.24237-12.49182 15.88264-18.42578 17.84375-8.4375-1.70394 1.52936-2.55214 3.57692-2.125 5.1875 1.03258.6875 2.05689 1.38537 3.09375 2.0625 7.10396-.83615 4.72169-15.66589-7.59375-15.8125-.38667-.0103-.74877-.0117-1.125 0z"
             fill="#b3b3b3"
             stroke="#000"
             stroke-width="1.05337429"
             id="path48" />
          <path
             d="m222.6875 136.91421c-41.7457 0-75.58435 33.82268-75.58435 75.523 0 41.70032 33.83865 75.49233 75.58435 75.49233 41.7457 0 75.58435-33.79201 75.58435-75.49233 0-41.70032-33.83865-75.523-75.58435-75.523zm0 4.84673c39.06291 0 70.70695 31.65582 70.70695 70.67627 0 39.02045-31.64404 70.6456-70.70695 70.6456-39.06291 0-70.73763-31.62515-70.73763-70.6456 0-39.02045 31.67472-70.67627 70.73763-70.67627z"
             fill="#b3b3b3"
             id="path50" />
          <path
             d="m222.6875 61.25c-83.58234 0-151.34375 67.69601-151.34375 151.1875 0 83.49149 67.76141 151.15625 151.34375 151.15625 83.58234 0 151.3125-67.66476 151.3125-151.15625 0-83.49149-67.73016-151.1875-151.3125-151.1875zm0 48.03125c57.02903 0 103.25 46.18922 103.25 103.15625 0 56.96703-46.22097 103.125-103.25 103.125-57.02903 0-103.28125-46.15797-103.28125-103.125 0-56.96703 46.25222-103.15625 103.28125-103.15625z"
             fill="#b3b3b3"
             id="path52" />
          <path
             d="m285.44141 212.33513c0 37.38477-30.92946 67.69112-69.08289 67.69112-38.15343 0-69.08289-30.30635-69.08289-67.69112 0-37.38477 30.92946-67.69112 69.08289-67.69112 38.15343 0 69.08289 30.30635 69.08289 67.69112z"
             fill="none"
             stroke="#000"
             stroke-width=".52017486"
             transform="matrix(2.0944021 0 0 2.135141 -230.46622 -240.93845)"
             id="path54" />
          <path
             d="m285.44141 212.33513c0 37.38477-30.92946 67.69112-69.08289 67.69112-38.15343 0-69.08289-30.30635-69.08289-67.69112 0-37.38477 30.92946-67.69112 69.08289-67.69112 38.15343 0 69.08289 30.30635 69.08289 67.69112z"
             fill="none"
             stroke="#000"
             stroke-width=".67725259"
             transform="matrix(1.6086396 0 0 1.6399298 -125.36736 -135.7877)"
             id="path56" />
          <g
             fill-rule="evenodd"
             transform="translate(565 -115)"
             id="g58">
            <path
               d="m-457.26873 258.71259c-2.05614-2.78758-3.92523-3.49809-5.67651-2.12645-1.75535 1.36886-2.56595 2.98194-2.36258 4.79923.1993 1.81449 1.1154 3.07924 2.80939 3.7661 1.68991.68408 3.48584.3394 5.39186-1.00505 1.90602-1.34444 3.88942-2.70588 6.01533-3.97855 2.12999-1.2699 4.35345-1.1473 6.69481.42819 2.34137 1.58423 3.28993 3.6753 2.89864 6.25699-.39128 2.59044-1.79248 5.0319-4.17915 7.24497-2.38667 2.22181-5.893 2.7774-10.53933 1.51302 1.00208-2.15511 1.27925-4.02824.73377-5.61631 3.18016 2.33285 5.89221 3.0956 8.13207 2.37286 2.2358-.72553 3.57983-2.02615 4.00359-3.79899.42375-1.77284-.11767-3.20082-1.6202-4.29861-1.51068-1.08589-3.40431-1.06151-5.65237.0315-2.24806 1.10171-4.44729 2.52526-6.64249 4.17882-2.19112 1.65635-4.21919 2.16563-6.12086 1.43283-1.90574-.72684-3.25754-2.2809-4.13276-4.67142-.87116-2.38773.0944-5.38944 2.83552-8.95951 2.74114-3.57881 6.08867-4.29548 10.05074-2.14444-1.17712 1.6071-2.05287 3.13192-2.63947 4.57485"
               id="path60" />
            <path
               d="m-439.81549 265.38193c-1.78317-3.75457-6.77472-11.90656-15.22311-24.16268.52136-.76212 1.04271-1.52423 1.56407-2.28634 14.08961 4.21083 23.33349 6.12061 27.55647 6.09897-1.08345 1.58377-2.16689 3.16754-3.24626 4.74535-1.16053-.56666-2.36996-.957-3.62419-1.22067.97703 2.3815.77719 4.63966-.51809 6.77774-1.28714 2.13492-3.53112 3.23068-6.70345 3.21065.54146 1.192 1.4861 2.18784 2.83801 2.93786-.88387 1.3095-1.76366 2.60431-2.64345 3.89912zm-2.45018-10.06694c4.08843 1.2236 6.69066 1.00222 7.77818-.5875 1.08752-1.5635.53806-3.871-1.68908-6.89793-6.58456-2.68645-11.24715-4.1455-13.97554-4.52611 1.19693 2.40082 3.7823 6.47692 7.88644 12.01154z"
               id="path62" />
            <path
               d="m-437.45965 230.8706c3.1501 3.73884 5.55824 6.57609 7.24496 8.51137 1.68671 1.93531 3.1907 3.51269 4.54628 4.75287-.66669.53703-1.33344 1.07399-1.99715 1.60855-.98093-1.47743-2.92683-3.91864-5.87367-7.29994-2.94663-3.38686-4.68382-5.303-5.21457-5.74599-.5368-.43811-1.03785-.57725-1.53821-.42142.33155-1.43841.19921-2.83636-.43237-4.18682.71951.40381 1.46695 1.00003 2.22185 1.78908-.59398-2.4393-.22182-4.10386 1.08048-4.97007 1.3025-.87176 2.77221-.88951 4.42297-.0322 1.64773.85979 3.0628 2.30999 4.27389 4.36505 1.20811 2.05751 1.00676 4.1648-.51724 6.34872 1.70949-.24846 3.58387.0258 5.64358.90301 2.06252.88035 3.47092 1.72336 4.21149 2.58304-.78132.62939-1.56269 1.2587-2.34408 1.88799-2.25039-2.20132-5.35319-3.43665-9.31835-3.83236-.21041-.23355-.42724-.47262-.63802-.70587 1.71453-1.49443 2.22856-3.1866 1.50502-5.05407-.71469-1.8692-1.75069-3.36142-3.12327-4.45894-1.37561-1.09509-2.51026-1.35259-3.42721-.77526-.91416.58048-1.16647 2.17001-.72635 4.73322"
               stroke="#000"
               stroke-width="1.20000005"
               id="path64" />
            <path
               d="m-430.91881 221.28331c-.18366-2.08018-.76127-3.79343-1.7846-5.10473 2.9795.0877 5.34964-.46359 7.06421-1.60148 1.71458-1.13789 4.12949-2.1082 7.23689-2.83989 3.1025-.72782 5.96987.28045 8.59036 3.13149 2.61557 2.85488 4.11093 5.80493 4.55162 8.85309.4407 3.04816-.70192 5.63862-3.35283 7.75608-2.65842 2.11792-5.42915 2.8249-8.26627 2.05806-2.8345-.76347-5.17663-2.60908-6.9723-5.57904-1.79566-2.96995-2.38275-5.54681-1.82549-7.69127.55986-2.14109 1.87055-4.19184 3.86841-6.17295-3.65588 1.71153-6.70532 4.1292-9.11001 7.19061zm10.76874-7.70064c-3.34915 3.2196-3.97445 6.72639-1.78803 10.51128 2.19132 3.78105 4.53494 6.15568 7.05218 7.16131 2.51231 1.0095 4.49274.7191 5.88061-.87796 1.38855-1.57594 1.67892-3.7177.78855-6.40951-.89039-2.69183-2.46788-5.2099-4.79018-7.54706-2.32983-2.33668-4.70311-3.2491-7.14313-2.83806z"
               id="path66" />
            <path
               d="m-403.52201 226.89299c.40283-3.49152.47423-11.574-.0897-24.15083.7097-.31063 1.42499-.6237 2.14026-.93677 8.21913 9.331 13.99352 14.84119 17.02639 16.71965-1.48086.64816-2.96732 1.29876-4.44818 1.94693-.57853-.92624-1.26551-1.75036-2.05256-2.49882-.36037 2.14322-1.52075 3.67573-3.40743 4.62901-1.8794.95466-3.97963.73543-6.24029-.70231-.15116 1.09989.0802 2.23724.70836 3.38315-1.20929.5384-2.42584 1.07542-3.6368 1.60999zm2.74625-8.31513c2.39538 2.70395 4.3553 3.7132 5.84175 3.0626 1.4803-.63424 2.12538-2.53776 1.88385-5.70628-3.51362-4.87852-6.20974-8.01098-7.99609-9.50604-.2225 2.26047-.18841 6.33947.27049 12.14972z"
               stroke="#000"
               id="path68" />
          </g>
          <g
             fill-rule="evenodd"
             transform="translate(565 -115)"
             id="g70">
            <path
               d="m-291.47961 206.42364c1.91062-1.99954 2.25245-3.61533 1.02929-4.89553-1.22642-1.28654-2.54055-1.77062-3.9096-1.40257-1.35743.36968-2.22606 1.26314-2.57308 2.72994-.34534 1.46315.10458 2.89786 1.32813 4.31075 1.22353 1.41288 2.46806 2.88733 3.65978 4.48867 1.19004 1.60498 1.32834 3.44287.3714 5.54045-.9636 2.09856-2.45875 3.11133-4.47247 3.07725-2.01048-.0278-4.01763-.90342-5.9534-2.61319-1.94242-1.7088-2.7314-4.52305-2.25684-8.4794 1.75223.58301 3.20899.60027 4.3627-.0254-1.45181 2.86801-1.75057 5.17855-.96119 6.93772.78609 1.75286 1.91762 2.70961 3.3132 2.85839 1.39561.14878 2.4277-.45559 3.10793-1.8114.67032-1.36117.45435-2.91198-.61316-4.63367-1.07911-1.72339-2.38852-3.36529-3.87782-4.98073-1.491-1.61179-2.09061-3.2185-1.73021-4.86083.35543-1.64499 1.39423-2.931 3.13022-3.91453 1.72933-.98254 4.11815-.52712 7.12529 1.32123 3.01379 1.84738 3.90902 4.51329 2.68227 8.00507-1.35272-.78811-2.6014-1.33285-3.76247-1.65225"
               id="path72" />
            <path
               d="m-281.44807 203.84615c-.042 1.26082-.16193 2.40018-.41857 3.39896-.25663.99878-1.25355 3.50721-3.0088 7.52855-1.74618 4.02631-2.85733 6.91916-3.34536 8.69392-1.03046-.56395-2.06091-1.1279-3.0959-1.69434 1.89391-3.65627 3.30254-6.63607 4.22599-8.92617.90834-2.29401 1.56845-4.0272 1.95324-5.18807.38784-1.15481.20206-2.10654-.55439-2.86231 1.9202-.0139 3.34256-.30454 4.24379-.95054zm-4.61483-2.31532c-.134-.34937-.27401-.69767-.40504-1.05419 3.33829-.6311 6.66882-.93347 9.89967-1.08883.13683.50429.39187 1.09956.76064 1.78337-3.05624-.3888-6.49421-.3249-10.25527.35965z"
               id="path74" />
            <path
               d="m-272.56281 212.43803c-.89571-.73241-2.21933-.63329-3.94535.30271-1.72823.93892-3.32826 2.56894-4.78884 4.90762-1.46373 2.33633-2.30252 4.22253-2.54733 5.62162-.24168 1.40146.008 2.48983.71969 3.24917.70478.7628 1.87532.78662 3.46644.0466 1.59017-.74525 3.20586-2.25368 4.82108-4.54941 1.61206-2.29808 2.57376-4.37104 2.92804-6.19118.35649-1.82302.11533-2.96041-.65373-3.38717zm.3631-.84357c1.77567 1.09149 2.58307 2.72746 2.36277 4.89529-.2203 2.16784-1.31103 4.45497-3.32131 6.8611-2.01561 2.40668-4.01356 3.87958-6.00519 4.47879-1.98316.60102-3.60632.35613-4.85099-.67502-1.24779-1.03351-1.86675-2.54161-1.80906-4.51592.0609-1.97195 1.04277-4.22643 2.99624-6.77131 1.9566-2.54253 3.99178-4.08354 6.08475-4.67982 2.09076-.59338 3.61626-.44015 4.54279.40689z"
               stroke="#000"
               id="path76" />
            <path
               d="m-263.81185 234.08167c-.25234.71677-.49177 1.43598-.74141 2.15042-2.70169.61616-4.93912.10671-6.7075-1.48475-1.76569-1.59381-2.65351-3.51201-2.57375-5.72329.0825-2.2136 1.03665-4.18691 2.97813-5.88365 1.9431-1.70499 4.18216-2.75918 6.70427-3.2333 2.52693-.46467 4.77668.23194 6.73097 2.02382 1.95696 1.78953 2.29416 4.3761.94016 7.69204-.96523-.37755-1.93098-.77512-2.89997-1.15624 2.19938-2.92998 2.58817-5.03393 1.20238-6.26804-1.396-1.23889-3.46699-1.24454-6.17375.0105-2.70834 1.26321-4.88103 3.1945-6.50142 5.79991-1.6166 2.60897-1.62697 4.6714-.0661 6.14935 1.55719 1.47438 3.94208 1.46032 7.10794-.0767"
               stroke="#000"
               id="path78" />
            <path
               d="m-253.02845 233.46463c-2.53704 2.43424-4.32178 4.18588-5.33348 5.25192-1.00309 1.07511-2.20964 2.5305-3.60149 4.34815-.87021-.91323-1.74878-1.83574-2.61884-2.7491 2.89206-2.63069 5.47736-5.11326 7.75503-7.41147 2.2837-2.30429 3.67123-3.94091 4.19438-4.88879.53784-.94487.72496-1.87433.58983-2.74613 2.00409.27261 3.49299.17764 4.43915-.36333.94494 1.47445-.50129 3.96498-4.35079 7.48363 2.61507-.28612 4.57429.3848 5.83887 1.91026 1.25857 1.53145 1.51761 3.25097.722 5.12538-.80163 1.88042-2.17792 3.41748-4.15297 4.63529-1.97763 1.2027-4.53418 1.87196-7.59387 2.16152.72445.9708 1.78583 1.76327 3.17637 2.3322-.63162.3144-1.27444.60467-1.90004.913-1.30076-1.36552-2.6016-2.73101-3.89383-4.08744 4.58571-.8281 7.786-2.19492 9.52685-4.20298 1.74082-2.00808 2.41321-3.90044 2.08007-5.59876-.33315-1.69833-1.99337-2.43894-4.87727-2.11331"
               id="path80" />
            <path
               d="m-253.56569 249.3185c3.13649.0982 10.33294-.4406 21.48075-1.87967.32658.60354.65849 1.21657.99552 1.83923-7.6953 8.00506-12.1668 13.54671-13.6069 16.39469-.68962-1.27405-1.37924-2.54808-2.06886-3.82212.78291-.57238 1.4656-1.25161 2.07545-2.00283-1.93632-.16572-3.38697-1.07736-4.37572-2.68492-.98875-1.60756-.95282-3.49729.15722-5.60923-.98918-.0591-1.97866.24118-2.95398.88059-.56659-1.03099-1.13829-2.0716-1.70349-3.11573zm7.60539 1.8285c-2.23245 2.32315-2.97914 4.1517-2.28951 5.42574.67114 1.27166 2.40783 1.69406 5.21737 1.25085 4.07279-3.49273 6.65955-6.13152 7.86179-7.8227-2.03104-.0277-5.65697.30002-10.78965 1.14611zm11.87898-6.50434c.08-.35296.14827-.71195.22828-1.06491 3.27719 1.65698 6.35592 3.55763 9.26978 5.49799-.16028.47072-.26761 1.08618-.32855 1.84993-2.45498-2.25065-5.50121-4.40424-9.16951-6.28301z"
               id="path82" />
            <path
               d="m-228.70262 262.47025c-3.54606 1.7808-6.20417 3.15798-7.96957 4.15982-1.75894 1.01377-3.27105 2.09416-4.51528 3.2607-.82561-1.5253-1.64486-3.03864-2.47046-4.56395 2.75891-1.01574 5.51377-2.21419 8.18987-3.61652 2.69068-1.39487 4.33863-2.30222 4.94371-2.72226.59864-.43195.87138-1.05717.90101-1.85901 1.38014 1.1481 2.81772 1.81829 4.32938 1.92451-.24595 1.18085-.94754 2.08449-2.08033 2.69767 2.60869.57554 4.46893 1.98762 5.59433 4.10563 1.13208 2.12981.77513 4.07952-1.04398 5.81918-1.82558 1.72775-4.03342 2.76876-6.64627 3.11995-2.61929.33926-5.06302.32156-7.33319.0404.17272 1.00045.9485 2.04428 2.3161 3.09131-.72731.11634-1.45294.21638-2.17211.32832-.95467-1.7636-1.9028-3.51534-2.85746-5.27895 4.19095.89008 7.73721.51129 10.62794-1.25376 2.89073-1.76503 4.34722-3.49329 4.38066-5.14463.0334-1.65132-1.38133-3.05803-4.19438-4.10844"
               id="path84" />
            <path
               d="m-236.80806 278.67205c3.26374.93401 10.95459 2.27558 23.02838 3.71984.18545.731.37125 1.46191.55687 2.19287-10.19228 6.35733-16.34764 10.99646-18.61558 13.59061-.38577-1.51902-.76863-3.0266-1.15439-4.54561.9699-.40436 1.86593-.93587 2.70462-1.56222-1.98702-.68684-3.26701-2.02739-3.87816-3.97547-.61114-1.94808-.0698-3.90921 1.65106-5.84165-1.01894-.31265-2.13924-.27129-3.32873.15238-.32392-1.24293-.64794-2.48583-.96411-3.73074zm7.49254 3.93291c-2.95413 1.85658-4.2247 3.56524-3.83894 5.08425.36701 1.51162 2.07954 2.42621 5.14091 2.69431 5.1972-2.58429 8.6124-4.65523 10.31857-6.12195-2.12293-.56721-6.01288-1.18414-11.62054-1.65661z"
               id="path86" />
          </g>
          <path
             d="m127.62413 287.02868c-3.16103 2.39941-5.50767 4.25797-7.05565 5.571-1.53939 1.32358-2.82391 2.66661-3.82915 4.04442-1.09519-1.3449-2.18189-2.67923-3.28563-4.03463 2.53009-1.50118 5.01363-3.19163 7.38182-5.06773 2.38387-1.87153 3.83376-3.0702 4.35037-3.59518.50777-.53582.6593-1.20093.5391-1.99426 1.56979.87104 3.10701 1.26182 4.612 1.08471-.0218 1.20602-.54282 2.22447-1.54163 3.03786 2.67023.0797 4.75231 1.11025 6.26096 2.99218 1.50884 1.88177 1.52119 3.86385.0492 5.90129-1.46339 2.04797-3.43876 3.48187-5.9491 4.30292-2.50176.83156-4.90604 1.26917-7.18887 1.41567.34744.94028 1.31256 1.83193 2.85119 2.60599-.69293.24976-1.38724.48314-2.07299.72703-1.26636-1.555-2.52407-3.09955-3.79043-4.65456 4.28338.0942 7.69711-.93833 10.20008-3.22127 2.52008-2.26192 3.62929-4.23116 3.35466-5.85983-.27463-1.62868-1.92657-2.74735-4.88601-3.25562"
             fill-rule="evenodd"
             id="path88" />
          <path
             d="m125.16474 307.22135c2.90442-1.18566 9.25769-4.60392 18.85359-10.45103.55225.42511 1.1047.84995 1.65705 1.27493-3.77298 10.43987-5.59476 17.32576-5.76058 20.50567-1.14786-.88314-2.29572-1.76629-3.43495-2.6428.47362-.84772.82096-1.74562 1.07246-2.67968-1.83578.636-3.53994.38663-5.08798-.67284-1.55665-1.0661-2.28359-2.79993-2.13721-5.18672-.91879.35489-1.70899 1.02482-2.33974 2.00536-.94526-.7179-1.88191-1.4291-2.82265-2.15287zm7.68932-1.42253c-1.08558 3.03606-1.03264 5.00303.11522 5.88616 1.13003.88849 2.89647.57473 5.27354-.97909 2.2994-4.84588 3.59748-8.301 3.99918-10.34101-1.86619.80053-5.0444 2.57421-9.38794 5.43394z"
             fill-rule="evenodd"
             id="path90" />
          <g
             fill-rule="evenodd"
             transform="translate(564 -107)"
             id="g92">
            <path
               d="m-299.08425 436.27955c1.52455 3.50131 2.62899 5.96158 3.3367 7.40064.72041 1.43322 1.74231 3.19683 3.06963 5.29925-1.24277.57315-2.498 1.15158-3.74085 1.72454-1.59619-3.94787-3.15181-7.51648-4.63838-10.70874-1.4827-3.18388-2.62101-5.19995-3.37736-6.09618-.76864-.89057-1.63852-1.41812-2.56883-1.5913 1.0294-1.97457 1.46546-3.55316 1.26741-4.72718 1.83715-.44897 3.82018 1.94299 5.95684 7.19274.68613-2.81632 2.0728-4.59846 4.07912-5.36013 2.02253-.7589 3.84235-.40397 5.44263 1.09301 1.60416 1.50541 2.6499 3.48253 3.15275 5.96502.49056 2.48815.22144 5.36738-.61263 8.63966 1.24729-.40153 2.43848-1.21599 3.52505-2.45162.085.76696.1415 1.53683.22649 2.30378-1.8581.85665-3.70394 1.70752-5.56204 2.56416.85196-5.04585.64966-8.85061-.74151-11.38278-1.38725-2.52376-3.05105-3.89962-4.88908-4.16455-1.83412-.25654-3.18498 1.18258-3.9263 4.29987"
               id="path94" />
            <path
               d="m-283.94401 434.42759c1.7441 2.71444 3.52188 4.35574 5.26329 5.01815 1.73844.65657 3.09269.42969 3.9854-.66137.89577-1.08593 1.24667-2.54767.99791-4.40867.35748.13365.71754.25138 1.07205.37922.0667 1.24951-.17595 2.33352-.6534 3.25087-.47745.91735-1.39868 1.67887-2.7348 2.29923-1.35355.6072-2.97884.72185-4.87443.26247-1.89261-.45355-3.58823-1.80657-5.03349-4.12288-1.43675-2.32065-2.00624-4.51735-1.7511-6.56843.26067-2.06125 1.33408-3.6628 3.14828-4.81947 1.82011-1.14503 3.45587-1.49231 4.8991-1.01571 1.44359.4984 2.4051 1.29314 2.85413 2.45101.44903 1.15784.24201 2.1431-.57441 3.00537 1.41952-.77278 2.35002-1.49497 2.78552-2.17834.14063.5299.28977 1.05547.43594 1.57521-3.27518 1.84782-6.54481 3.6855-9.81999 5.53334zm-.33796-.6643c2.10245-1.2225 3.631-2.32935 4.55118-3.32502.91169-.99134 1.05245-2.17027.40524-3.52812-.66126-1.34335-1.60095-2.03184-2.80533-2.10178-1.20144-.0641-2.23793.82932-3.00685 2.65015-.783 1.83534-.51029 3.93347.85573 6.30477zm-3.24581-7.04085c-.30784-.0782-.61272-.15065-.92057-.22886 1.51978-2.83317 3.25741-5.49095 5.0346-8.00756.40934.15134.94685.2595 1.60406.32886-2.0275 2.10845-3.98071 4.72183-5.71809 7.90756z"
               id="path96" />
            <path
               d="m-277.11544 417.33924c1.08612.66639 2.00751 1.36031 2.72604 2.10831.72307.75454 2.34417 3.0029 4.84419 6.75834 2.50002 3.75546 4.38102 6.31635 5.66158 7.68909-1.08653.75608-2.1731 1.5121-3.2501 2.26156-2.10707-3.71931-3.89585-6.61525-5.3618-8.68132-1.48047-2.04629-2.6167-3.57752-3.40052-4.54132-.78382-.9638-1.71939-1.2512-2.81126-.86873 1.08598-1.93596 1.65231-3.50063 1.59187-4.72593"
               id="path98" />
            <path
               d="m-269.45199 416.48112c2.92489 3.92217 5.15419 6.891 6.71457 8.91673 1.56547 2.0323 2.95848 3.6853 4.21522 5.00491-.60746.51717-1.22043 1.0391-1.82796 1.55619-.91623-1.54374-2.72056-4.09612-5.45104-7.64672-2.73072-3.53942-4.33477-5.54988-4.82801-6.02878-.49911-.46292-.95831-.62005-1.41495-.4834.29389-1.44496.1668-2.87132-.42484-4.26391.66165.43418 1.35535 1.07125 2.05439 1.90105-.55522-2.49776-.22253-4.17306.96528-5.00893 1.19303-.82935 2.55038-.79014 4.07139.14008 1.5207.94143 2.82573 2.46107 3.95707 4.59992 1.12613 2.13233.94793 4.25704-.44416 6.41774 1.57397-.18908 3.29993.16108 5.20786 1.13457 1.8972.97166 3.19257 1.87474 3.88391 2.78785-.71796.61119-1.43033 1.2177-2.14272 1.82422-2.08568-2.32384-4.94747-3.69097-8.59758-4.24451-.20337-.25436-.39577-.49612-.59379-.74404 1.57155-1.44755 2.03426-3.14584 1.36054-5.07142-.67372-1.92556-1.63287-3.47662-2.90444-4.65207-1.27187-1.16424-2.31994-1.46673-3.15497-.90931-.84018.55093-1.06308 2.15463-.64589 4.76994"
               id="path100" />
            <path
               d="m-256.53959 414.75715c2.36244 2.755 4.59666 4.30913 6.64799 4.77209 2.03832.46305 3.51214.002 4.32945-1.34622.83033-1.34826 1.00438-3.0372.43098-5.06611.41893.0937.83828.16925 1.253.25695.26725 1.38186.16436 2.6271-.21711 3.71677-.39029 1.09582-1.29909 2.08656-2.70077 2.99023-1.4143.88557-3.19862 1.25815-5.39039 1.04522-2.17874-.21304-4.26808-1.46482-6.23606-3.82238-1.96799-2.35755-2.94174-4.71709-2.97425-7.04175-.0279-2.33684.92073-4.287 2.76342-5.85591 1.85108-1.55683 3.62878-2.20253 5.30155-1.88827 1.68538.33236 2.8794 1.06935 3.55852 2.29005.67911 1.22071.60061 2.35041-.17585 3.43721 1.47106-1.08637 2.38742-2.02858 2.76712-2.85723.24734.56255.48585 1.13122.72898 1.68772-3.36374 2.56461-6.72285 5.11703-10.08658 7.68163zm-.47912-.68795c2.16251-1.6929 3.69462-3.16216 4.55728-4.40749.87148-1.25145.84625-2.58671-.0933-3.99348-.93536-1.40077-2.08869-2.02272-3.45021-1.90851-1.3485.1141-2.36535 1.26962-2.94086 3.41709-.58893 2.16579.0391 4.46135 1.92713 6.89239z"
               id="path102" />
            <path
               d="m-239.87184 414.85854c-1.48088-3.03237-5.5891-9.59787-12.52703-19.46623.41656-.62146.83284-1.2431 1.24927-1.86466 11.44855 3.30797 18.95286 4.77552 22.37753 4.73412-.86537 1.29168-1.73073 2.58335-2.58959 3.86531-.94804-.45221-1.9343-.76118-2.95256-.96495.81033 1.92181.66947 3.75517-.36315 5.49761-1.026 1.7469-2.83221 2.64747-5.4059 2.65396.45134.96373 1.21789 1.75866 2.31926 2.36988-.7027 1.0489-1.40529 2.11191-2.10781 3.17498zm-2.07089-8.1414c3.33521.95396 5.43188.75456 6.29722-.53749.87233-1.27294.41209-3.14316-1.41945-5.58028-5.35259-2.1226-9.145-3.27029-11.35854-3.55723.9887 1.94284 3.11206 5.22273 6.48074 9.67462z"
               id="path104" />
            <path
               d="m-240.18696 388.04826c3.54998 1.57838 6.24742 2.74294 8.12053 3.46848 1.86657.73506 3.66327 1.25721 5.37695 1.58554-.83661 1.21213-1.67973 2.43385-2.52294 3.65554-2.44554-1.40388-5.04236-2.69855-7.77354-3.87704-2.73775-1.16899-4.45618-1.86736-5.16193-2.08554-.71231-.20867-1.40746-.12808-2.11262.21828.20308-1.42506-.0294-2.67444-.80633-3.73183 1.15629-.35609 2.33319-.28656 3.51377.20164-.99701-1.99493-.83979-3.85608.34303-5.53847 1.1892-1.69205 3.07697-2.32229 5.60255-1.86679 2.52561.45552 4.67758 1.46809 6.46619 3.05425 1.782 1.5957 3.14847 3.22813 4.20633 4.8679.76286-.55561 1.23501-1.53814 1.34323-2.90427.5139.43334 1.01275.87274 1.52665 1.30607-.9749 1.4126-1.94332 2.81561-2.91163 4.21867-1.63297-3.17805-3.9763-5.37393-7.13993-6.52267-3.16362-1.14875-5.47128-1.35464-6.92006-.65328-1.44035.70485-1.84635 2.26683-1.15024 4.60352"
               id="path106" />
            <path
               d="m-233.99978 375.14356c3.54998 1.57838 6.24742 2.74294 8.12053 3.46848 1.86657.73506 3.66327 1.25721 5.37695 1.58554-.83661 1.21213-1.67973 2.43385-2.52294 3.65554-2.44554-1.40388-5.04236-2.69855-7.77354-3.87704-2.73775-1.16899-4.45618-1.86736-5.16193-2.08554-.71231-.20867-1.40746-.12808-2.11262.21828.20308-1.42506-.0294-2.67444-.80633-3.73183 1.15629-.35609 2.33319-.28656 3.51377.20164-.99701-1.99493-.83979-3.85608.34303-5.53847 1.1892-1.69205 3.07697-2.32229 5.60255-1.86679 2.52561.45552 4.67758 1.46809 6.46619 3.05425 1.782 1.5957 3.14847 3.22813 4.20633 4.8679.76286-.55561 1.23501-1.53814 1.34323-2.90427.5139.43334 1.01275.87274 1.52665 1.30607-.9749 1.4126-1.94332 2.81561-2.91163 4.21867-1.63297-3.17805-3.9763-5.37393-7.13993-6.52267-3.16362-1.14875-5.47128-1.35464-6.92006-.65328-1.44035.70485-1.84635 2.26683-1.15024 4.60352"
               id="path108" />
          </g>
          <text
             fill="#0f0"
             transform="matrix(.9207096 -.49802876 .45451413 .84026374 0 0)"
             x="392.95395"
             y="444.01331"
             id="text110" />
          <path
             d="m205.94485 112.22657l3.0052 19.09188 14.84925 3.18198 15.55635-2.47487 3.0052-19.26866c-11.45479-1.77249-23.54731-2.05695-36.416-.53033z"
             fill="#b3b3b3"
             stroke="#000"
             id="path112" />
          <path
             d="m206.65196 112.22657l17.85444 3.0052 17.5009-2.47487 0 0 0 0"
             fill="none"
             stroke="#000"
             id="path114" />
          <path
             d="m224.32962 115.23177l.0884 19.09189"
             fill="none"
             stroke="#000"
             id="path116" />
          <path
             d="m207.35906 122.12606l16.92637 3.53554 16.30765-2.2981"
             fill="none"
             stroke="#000"
             id="path118" />
          <path
             d="m224.68318 120.18152l17.14734-2.47487"
             fill="none"
             stroke="#000"
             id="path120" />
          <path
             d="m223.93188 130.25779l16.39604-2.16551"
             fill="none"
             stroke="#000"
             id="path122" />
          <g
             stroke="#000"
             transform="matrix(.00792747 .99996858 -.99996858 .00792747 433.72286 -11.880061)"
             id="g124">
            <g
               transform="matrix(.00792747 -.99996857 .99996857 .00792747 8.4413627 433.80341)"
               id="g126">
              <path
                 d="m205.94485 112.22657l3.0052 19.09188 14.84925 3.18198 15.55635-2.47487 3.0052-19.26866c-11.45479-1.77249-23.54731-2.05695-36.416-.53033z"
                 fill="#b3b3b3"
                 id="path128" />
              <path
                 d="m206.65196 112.22657l17.85444 3.0052 17.5009-2.47487 0 0 0 0"
                 fill="none"
                 id="path130" />
              <path
                 d="m224.32962 115.23177l.0884 19.09189"
                 fill="none"
                 id="path132" />
              <path
                 d="m207.35906 122.12606l16.92637 3.53554 16.30765-2.2981"
                 fill="none"
                 id="path134" />
              <path
                 d="m224.68318 120.18152l17.14734-2.47487"
                 fill="none"
                 id="path136" />
              <path
                 d="m223.93188 130.25779l16.39604-2.16551"
                 fill="none"
                 id="path138" />
              <g
                 transform="matrix(.90909932 .41657943 -.41657943 .90909932 105.85464 -74.288656)"
                 id="g140">
                <path
                   d="m205.94485 112.22657l3.0052 19.09188 14.84925 3.18198 15.55635-2.47487 3.0052-19.26866c-11.45479-1.77249-23.54731-2.05695-36.416-.53033z"
                   fill="#b3b3b3"
                   id="path142" />
                <path
                   d="m206.65196 112.22657l17.85444 3.0052 17.5009-2.47487 0 0 0 0"
                   fill="none"
                   id="path144" />
                <path
                   d="m224.32962 115.23177l.0884 19.09189"
                   fill="none"
                   id="path146" />
                <path
                   d="m207.35906 122.12606l16.92637 3.53554 16.30765-2.2981"
                   fill="none"
                   id="path148" />
                <path
                   d="m224.68318 120.18152l17.14734-2.47487"
                   fill="none"
                   id="path150" />
                <path
                   d="m223.93188 130.25779l16.39604-2.16551"
                   fill="none"
                   id="path152" />
              </g>
              <g
                 transform="matrix(.71862572 .69539706 -.69539706 .71862572 211.65396 -92.996572)"
                 id="g154">
                <path
                   d="m205.94485 112.22657l3.0052 19.09188 14.84925 3.18198 15.55635-2.47487 3.0052-19.26866c-11.45479-1.77249-23.54731-2.05695-36.416-.53033z"
                   fill="#b3b3b3"
                   id="path156" />
                <path
                   d="m206.65196 112.22657l17.85444 3.0052 17.5009-2.47487 0 0 0 0"
                   fill="none"
                   id="path158" />
                <path
                   d="m224.32962 115.23177l.0884 19.09189"
                   fill="none"
                   id="path160" />
                <path
                   d="m207.35906 122.12606l16.92637 3.53554 16.30765-2.2981"
                   fill="none"
                   id="path162" />
                <path
                   d="m224.68318 120.18152l17.14734-2.47487"
                   fill="none"
                   id="path164" />
                <path
                   d="m223.93188 130.25779l16.39604-2.16551"
                   fill="none"
                   id="path166" />
              </g>
              <g
                 transform="matrix(.36450707 .93120062 -.93120062 .36450707 338.15709 -73.05811)"
                 id="g168">
                <path
                   d="m205.94485 112.22657l3.0052 19.09188 14.84925 3.18198 15.55635-2.47487 3.0052-19.26866c-11.45479-1.77249-23.54731-2.05695-36.416-.53033z"
                   fill="#b3b3b3"
                   id="path170" />
                <path
                   d="m206.65196 112.22657l17.85444 3.0052 17.5009-2.47487 0 0 0 0"
                   fill="none"
                   id="path172" />
                <path
                   d="m224.32962 115.23177l.0884 19.09189"
                   fill="none"
                   id="path174" />
                <path
                   d="m207.35906 122.12606l16.92637 3.53554 16.30765-2.2981"
                   fill="none"
                   id="path176" />
                <path
                   d="m224.68318 120.18152l17.14734-2.47487"
                   fill="none"
                   id="path178" />
                <path
                   d="m223.93188 130.25779l16.39604-2.16551"
                   fill="none"
                   id="path180" />
              </g>
            </g>
            <g
               transform="translate(.52050369 1.2416021)"
               id="g182">
              <path
                 d="m205.94485 112.22657l3.0052 19.09188 14.84925 3.18198 15.55635-2.47487 3.0052-19.26866c-11.45479-1.77249-23.54731-2.05695-36.416-.53033z"
                 fill="#b3b3b3"
                 id="path184" />
              <path
                 d="m206.65196 112.22657l17.85444 3.0052 17.5009-2.47487 0 0 0 0"
                 fill="none"
                 id="path186" />
              <path
                 d="m224.32962 115.23177l.0884 19.09189"
                 fill="none"
                 id="path188" />
              <path
                 d="m207.35906 122.12606l16.92637 3.53554 16.30765-2.2981"
                 fill="none"
                 id="path190" />
              <path
                 d="m224.68318 120.18152l17.14734-2.47487"
                 fill="none"
                 id="path192" />
              <path
                 d="m223.93188 130.25779l16.39604-2.16551"
                 fill="none"
                 id="path194" />
            </g>
            <g
               transform="matrix(.90909932 .41657943 -.41657943 .90909932 105.4969 -73.761145)"
               id="g196">
              <path
                 d="m205.94485 112.22657l3.0052 19.09188 14.84925 3.18198 15.55635-2.47487 3.0052-19.26866c-11.45479-1.77249-23.54731-2.05695-36.416-.53033z"
                 fill="#b3b3b3"
                 id="path198" />
              <path
                 d="m206.65196 112.22657l17.85444 3.0052 17.5009-2.47487 0 0 0 0"
                 fill="none"
                 id="path200" />
              <path
                 d="m224.32962 115.23177l.0884 19.09189"
                 fill="none"
                 id="path202" />
              <path
                 d="m207.35906 122.12606l16.92637 3.53554 16.30765-2.2981"
                 fill="none"
                 id="path204" />
              <path
                 d="m224.68318 120.18152l17.14734-2.47487"
                 fill="none"
                 id="path206" />
              <path
                 d="m223.93188 130.25779l16.39604-2.16551"
                 fill="none"
                 id="path208" />
            </g>
            <g
               transform="matrix(.71862572 .69539706 -.69539706 .71862572 210.94408 -92.648634)"
               id="g210">
              <path
                 d="m205.94485 112.22657l3.0052 19.09188 14.84925 3.18198 15.55635-2.47487 3.0052-19.26866c-11.45479-1.77249-23.54731-2.05695-36.416-.53033z"
                 fill="#b3b3b3"
                 id="path212" />
              <path
                 d="m206.65196 112.22657l17.85444 3.0052 17.5009-2.47487 0 0 0 0"
                 fill="none"
                 id="path214" />
              <path
                 d="m224.32962 115.23177l.0884 19.09189"
                 fill="none"
                 id="path216" />
              <path
                 d="m207.35906 122.12606l16.92637 3.53554 16.30765-2.2981"
                 fill="none"
                 id="path218" />
              <path
                 d="m224.68318 120.18152l17.14734-2.47487"
                 fill="none"
                 id="path220" />
              <path
                 d="m223.93188 130.25779l16.39604-2.16551"
                 fill="none"
                 id="path222" />
            </g>
            <g
               transform="matrix(.36450707 .93120062 -.93120062 .36450707 338.15709 -73.05811)"
               id="g224">
              <path
                 d="m205.94485 112.22657l3.0052 19.09188 14.84925 3.18198 15.55635-2.47487 3.0052-19.26866c-11.45479-1.77249-23.54731-2.05695-36.416-.53033z"
                 fill="#b3b3b3"
                 id="path226" />
              <path
                 d="m206.65196 112.22657l17.85444 3.0052 17.5009-2.47487 0 0 0 0"
                 fill="none"
                 id="path228" />
              <path
                 d="m224.32962 115.23177l.0884 19.09189"
                 fill="none"
                 id="path230" />
              <path
                 d="m207.35906 122.12606l16.92637 3.53554 16.30765-2.2981"
                 fill="none"
                 id="path232" />
              <path
                 d="m224.68318 120.18152l17.14734-2.47487"
                 fill="none"
                 id="path234" />
              <path
                 d="m223.93188 130.25779l16.39604-2.16551"
                 fill="none"
                 id="path236" />
            </g>
            <g
               transform="matrix(-1 0 0 -1 444.72028 426.34153)"
               id="g238">
              <g
                 transform="matrix(.00792747 -.99996857 .99996857 .00792747 8.4413627 433.80341)"
                 id="g240">
                <path
                   d="m205.94485 112.22657l3.0052 19.09188 14.84925 3.18198 15.55635-2.47487 3.0052-19.26866c-11.45479-1.77249-23.54731-2.05695-36.416-.53033z"
                   fill="#b3b3b3"
                   id="path242" />
                <path
                   d="m206.65196 112.22657l17.85444 3.0052 17.5009-2.47487 0 0 0 0"
                   fill="none"
                   id="path244" />
                <path
                   d="m224.32962 115.23177l.0884 19.09189"
                   fill="none"
                   id="path246" />
                <path
                   d="m207.35906 122.12606l16.92637 3.53554 16.30765-2.2981"
                   fill="none"
                   id="path248" />
                <path
                   d="m224.68318 120.18152l17.14734-2.47487"
                   fill="none"
                   id="path250" />
                <path
                   d="m223.93188 130.25779l16.39604-2.16551"
                   fill="none"
                   id="path252" />
                <g
                   transform="matrix(.90909932 .41657943 -.41657943 .90909932 105.85464 -74.288656)"
                   id="g254">
                  <path
                     d="m205.94485 112.22657l3.0052 19.09188 14.84925 3.18198 15.55635-2.47487 3.0052-19.26866c-11.45479-1.77249-23.54731-2.05695-36.416-.53033z"
                     fill="#b3b3b3"
                     id="path256" />
                  <path
                     d="m206.65196 112.22657l17.85444 3.0052 17.5009-2.47487 0 0 0 0"
                     fill="none"
                     id="path258" />
                  <path
                     d="m224.32962 115.23177l.0884 19.09189"
                     fill="none"
                     id="path260" />
                  <path
                     d="m207.35906 122.12606l16.92637 3.53554 16.30765-2.2981"
                     fill="none"
                     id="path262" />
                  <path
                     d="m224.68318 120.18152l17.14734-2.47487"
                     fill="none"
                     id="path264" />
                  <path
                     d="m223.93188 130.25779l16.39604-2.16551"
                     fill="none"
                     id="path266" />
                </g>
                <g
                   transform="matrix(.71862572 .69539706 -.69539706 .71862572 211.65396 -92.996572)"
                   id="g268">
                  <path
                     d="m205.94485 112.22657l3.0052 19.09188 14.84925 3.18198 15.55635-2.47487 3.0052-19.26866c-11.45479-1.77249-23.54731-2.05695-36.416-.53033z"
                     fill="#b3b3b3"
                     id="path270" />
                  <path
                     d="m206.65196 112.22657l17.85444 3.0052 17.5009-2.47487 0 0 0 0"
                     fill="none"
                     id="path272" />
                  <path
                     d="m224.32962 115.23177l.0884 19.09189"
                     fill="none"
                     id="path274" />
                  <path
                     d="m207.35906 122.12606l16.92637 3.53554 16.30765-2.2981"
                     fill="none"
                     id="path276" />
                  <path
                     d="m224.68318 120.18152l17.14734-2.47487"
                     fill="none"
                     id="path278" />
                  <path
                     d="m223.93188 130.25779l16.39604-2.16551"
                     fill="none"
                     id="path280" />
                </g>
                <g
                   transform="matrix(.36450707 .93120062 -.93120062 .36450707 338.15709 -73.05811)"
                   id="g282">
                  <path
                     d="m205.94485 112.22657l3.0052 19.09188 14.84925 3.18198 15.55635-2.47487 3.0052-19.26866c-11.45479-1.77249-23.54731-2.05695-36.416-.53033z"
                     fill="#b3b3b3"
                     id="path284" />
                  <path
                     d="m206.65196 112.22657l17.85444 3.0052 17.5009-2.47487 0 0 0 0"
                     fill="none"
                     id="path286" />
                  <path
                     d="m224.32962 115.23177l.0884 19.09189"
                     fill="none"
                     id="path288" />
                  <path
                     d="m207.35906 122.12606l16.92637 3.53554 16.30765-2.2981"
                     fill="none"
                     id="path290" />
                  <path
                     d="m224.68318 120.18152l17.14734-2.47487"
                     fill="none"
                     id="path292" />
                  <path
                     d="m223.93188 130.25779l16.39604-2.16551"
                     fill="none"
                     id="path294" />
                </g>
              </g>
              <g
                 transform="translate(.52050369 1.2416021)"
                 id="g296">
                <path
                   d="m205.94485 112.22657l3.0052 19.09188 14.84925 3.18198 15.55635-2.47487 3.0052-19.26866c-11.45479-1.77249-23.54731-2.05695-36.416-.53033z"
                   fill="#b3b3b3"
                   id="path298" />
                <path
                   d="m206.65196 112.22657l17.85444 3.0052 17.5009-2.47487 0 0 0 0"
                   fill="none"
                   id="path300" />
                <path
                   d="m224.32962 115.23177l.0884 19.09189"
                   fill="none"
                   id="path302" />
                <path
                   d="m207.35906 122.12606l16.92637 3.53554 16.30765-2.2981"
                   fill="none"
                   id="path304" />
                <path
                   d="m224.68318 120.18152l17.14734-2.47487"
                   fill="none"
                   id="path306" />
                <path
                   d="m223.93188 130.25779l16.39604-2.16551"
                   fill="none"
                   id="path308" />
              </g>
              <g
                 transform="matrix(.90909932 .41657943 -.41657943 .90909932 105.4969 -73.761145)"
                 id="g310">
                <path
                   d="m205.94485 112.22657l3.0052 19.09188 14.84925 3.18198 15.55635-2.47487 3.0052-19.26866c-11.45479-1.77249-23.54731-2.05695-36.416-.53033z"
                   fill="#b3b3b3"
                   id="path312" />
                <path
                   d="m206.65196 112.22657l17.85444 3.0052 17.5009-2.47487 0 0 0 0"
                   fill="none"
                   id="path314" />
                <path
                   d="m224.32962 115.23177l.0884 19.09189"
                   fill="none"
                   id="path316" />
                <path
                   d="m207.35906 122.12606l16.92637 3.53554 16.30765-2.2981"
                   fill="none"
                   id="path318" />
                <path
                   d="m224.68318 120.18152l17.14734-2.47487"
                   fill="none"
                   id="path320" />
                <path
                   d="m223.93188 130.25779l16.39604-2.16551"
                   fill="none"
                   id="path322" />
              </g>
              <g
                 transform="matrix(.71862572 .69539706 -.69539706 .71862572 210.94408 -92.648634)"
                 id="g324">
                <path
                   d="m205.94485 112.22657l3.0052 19.09188 14.84925 3.18198 15.55635-2.47487 3.0052-19.26866c-11.45479-1.77249-23.54731-2.05695-36.416-.53033z"
                   fill="#b3b3b3"
                   id="path326" />
                <path
                   d="m206.65196 112.22657l17.85444 3.0052 17.5009-2.47487 0 0 0 0"
                   fill="none"
                   id="path328" />
                <path
                   d="m224.32962 115.23177l.0884 19.09189"
                   fill="none"
                   id="path330" />
                <path
                   d="m207.35906 122.12606l16.92637 3.53554 16.30765-2.2981"
                   fill="none"
                   id="path332" />
                <path
                   d="m224.68318 120.18152l17.14734-2.47487"
                   fill="none"
                   id="path334" />
                <path
                   d="m223.93188 130.25779l16.39604-2.16551"
                   fill="none"
                   id="path336" />
              </g>
              <g
                 transform="matrix(.36450707 .93120062 -.93120062 .36450707 338.15709 -73.05811)"
                 id="g338">
                <path
                   d="m205.94485 112.22657l3.0052 19.09188 14.84925 3.18198 15.55635-2.47487 3.0052-19.26866c-11.45479-1.77249-23.54731-2.05695-36.416-.53033z"
                   fill="#b3b3b3"
                   id="path340" />
                <path
                   d="m206.65196 112.22657l17.85444 3.0052 17.5009-2.47487 0 0 0 0"
                   fill="none"
                   id="path342" />
                <path
                   d="m224.32962 115.23177l.0884 19.09189"
                   fill="none"
                   id="path344" />
                <path
                   d="m207.35906 122.12606l16.92637 3.53554 16.30765-2.2981"
                   fill="none"
                   id="path346" />
                <path
                   d="m224.68318 120.18152l17.14734-2.47487"
                   fill="none"
                   id="path348" />
                <path
                   d="m223.93188 130.25779l16.39604-2.16551"
                   fill="none"
                   id="path350" />
              </g>
            </g>
          </g>
          <g
             transform="translate(0 -1.2248738)"
             id="g352">
            <path
               d="m264.28116 62.110374c0 19.770292-16.304 35.79728-36.416 35.79728-20.112 0-36.416-16.026988-36.416-35.79728 0-19.770291 16.304-35.797279 36.416-35.797279 20.112 0 36.416 16.026988 36.416 35.797279z"
               fill="#b3b3b3"
               stroke="#000"
               stroke-width=".87924373"
               transform="matrix(1.1435381 0 0 1.1311776 -37.599869 -9.000601)"
               id="path354" />
            <path
               d="m264.28116 62.110374c0 19.770292-16.304 35.79728-36.416 35.79728-20.112 0-36.416-16.026988-36.416-35.79728 0-19.770291 16.304-35.797279 36.416-35.797279 20.112 0 36.416 16.026988 36.416 35.797279z"
               fill="#b3b3b3"
               stroke="#000"
               stroke-width="1.01612413"
               transform="matrix(.98949395 0 0 .97879851 -2.4985748 .46372106)"
               id="path356" />
            <g
               fill="none"
               stroke="#6a6a6a"
               stroke-width="1.79999995"
               transform="translate(.70710678)"
               id="g358">
              <path
                 d="m230.6052 30.909289c12.25473 10.747388 3.75247 23.186743-3.97748 25.721009 4.6816-22.280577 25.493-8.476263 26.51651-5.656854-18.47901 4.170867-29.63368-6.793071-22.53903-20.064155z"
                 id="path360" />
              <path
                 d="m213.6087 30.909289c-12.25473 10.747388-3.75247 23.186743 3.97748 25.721009-4.6816-22.280577-25.493-8.476263-26.51651-5.656854 18.47901 4.170867 29.63368-6.793071 22.53903-20.064155z"
                 id="path362" />
            </g>
            <g
               fill="none"
               stroke="#6a6a6a"
               stroke-width="1.79999995"
               transform="matrix(1 0 0 -1 .70710678 121.07514)"
               id="g364">
              <path
                 d="m230.6052 30.909289c12.25473 10.747388 3.75247 23.186743-3.97748 25.721009 4.6816-22.280577 25.493-8.476263 26.51651-5.656854-18.47901 4.170867-29.63368-6.793071-22.53903-20.064155z"
                 id="path366" />
              <path
                 d="m213.6087 30.909289c-12.25473 10.747388-3.75247 23.186743 3.97748 25.721009-4.6816-22.280577-25.493-8.476263-26.51651-5.656854 18.47901 4.170867 29.63368-6.793071 22.53903-20.064155z"
                 id="path368" />
            </g>
          </g>
          <g
             transform="matrix(0 -1 1 0 8.5660809 435.55072)"
             id="g370">
            <path
               d="m264.28116 62.110374c0 19.770292-16.304 35.79728-36.416 35.79728-20.112 0-36.416-16.026988-36.416-35.79728 0-19.770291 16.304-35.797279 36.416-35.797279 20.112 0 36.416 16.026988 36.416 35.797279z"
               fill="#b3b3b3"
               stroke="#000"
               stroke-width=".87924373"
               transform="matrix(1.1435381 0 0 1.1311776 -37.599869 -9.000601)"
               id="path372" />
            <path
               d="m264.28116 62.110374c0 19.770292-16.304 35.79728-36.416 35.79728-20.112 0-36.416-16.026988-36.416-35.79728 0-19.770291 16.304-35.797279 36.416-35.797279 20.112 0 36.416 16.026988 36.416 35.797279z"
               fill="#b3b3b3"
               stroke="#000"
               stroke-width="1.01612413"
               transform="matrix(.98949395 0 0 .97879851 -2.4985748 .46372106)"
               id="path374" />
            <path
               d="m230.6052 30.909289c12.25473 10.747388 3.75247 23.186743-3.97748 25.721009 4.6816-22.280577 25.493-8.476263 26.51651-5.656854-18.47901 4.170867-29.63368-6.793071-22.53903-20.064155z"
               fill="none"
               stroke="#6a6a6a"
               stroke-width="1.79999995"
               id="path376" />
            <path
               d="m213.6087 30.909289c-12.25473 10.747388-3.75247 23.186743 3.97748 25.721009-4.6816-22.280577-25.493-8.476263-26.51651-5.656854 18.47901 4.170867 29.63368-6.793071 22.53903-20.064155z"
               fill="none"
               stroke="#6a6a6a"
               stroke-width="1.79999995"
               id="path378" />
            <g
               fill="none"
               stroke="#6a6a6a"
               stroke-width="1.79999995"
               transform="matrix(1 0 0 -1 0 121.42869)"
               id="g380">
              <path
                 d="m230.6052 30.909289c12.25473 10.747388 3.75247 23.186743-3.97748 25.721009 4.6816-22.280577 25.493-8.476263 26.51651-5.656854-18.47901 4.170867-29.63368-6.793071-22.53903-20.064155z"
                 id="path382" />
              <path
                 d="m213.6087 30.909289c-12.25473 10.747388-3.75247 23.186743 3.97748 25.721009-4.6816-22.280577-25.493-8.476263-26.51651-5.656854 18.47901 4.170867 29.63368-6.793071 22.53903-20.064155z"
                 id="path384" />
            </g>
          </g>
          <g
             transform="matrix(0 -1 -1 0 436.40167 435.55072)"
             id="g386">
            <path
               d="m264.28116 62.110374c0 19.770292-16.304 35.79728-36.416 35.79728-20.112 0-36.416-16.026988-36.416-35.79728 0-19.770291 16.304-35.797279 36.416-35.797279 20.112 0 36.416 16.026988 36.416 35.797279z"
               fill="#b3b3b3"
               stroke="#000"
               stroke-width=".87924373"
               transform="matrix(1.1435381 0 0 1.1311776 -37.599869 -9.000601)"
               id="path388" />
            <path
               d="m264.28116 62.110374c0 19.770292-16.304 35.79728-36.416 35.79728-20.112 0-36.416-16.026988-36.416-35.79728 0-19.770291 16.304-35.797279 36.416-35.797279 20.112 0 36.416 16.026988 36.416 35.797279z"
               fill="#b3b3b3"
               stroke="#000"
               stroke-width="1.01612413"
               transform="matrix(.98949395 0 0 .97879851 -2.4985748 .46372106)"
               id="path390" />
            <g
               fill="none"
               stroke="#6a6a6a"
               stroke-width="1.79999995"
               transform="translate(.70710678)"
               id="g392">
              <path
                 d="m230.6052 30.909289c12.25473 10.747388 3.75247 23.186743-3.97748 25.721009 4.6816-22.280577 25.493-8.476263 26.51651-5.656854-18.47901 4.170867-29.63368-6.793071-22.53903-20.064155z"
                 id="path394" />
              <path
                 d="m213.6087 30.909289c-12.25473 10.747388-3.75247 23.186743 3.97748 25.721009-4.6816-22.280577-25.493-8.476263-26.51651-5.656854 18.47901 4.170867 29.63368-6.793071 22.53903-20.064155z"
                 id="path396" />
            </g>
            <g
               fill="none"
               stroke="#6a6a6a"
               stroke-width="1.79999995"
               transform="matrix(1 0 0 -1 .70710678 121.42869)"
               id="g398">
              <path
                 d="m230.6052 30.909289c12.25473 10.747388 3.75247 23.186743-3.97748 25.721009 4.6816-22.280577 25.493-8.476263 26.51651-5.656854-18.47901 4.170867-29.63368-6.793071-22.53903-20.064155z"
                 id="path400" />
              <path
                 d="m213.6087 30.909289c-12.25473 10.747388-3.75247 23.186743 3.97748 25.721009-4.6816-22.280577-25.493-8.476263-26.51651-5.656854 18.47901 4.170867 29.63368-6.793071 22.53903-20.064155z"
                 id="path402" />
            </g>
          </g>
          <g
             transform="matrix(1 0 0 -1 0 425.86065)"
             id="g404">
            <path
               d="m264.28116 62.110374c0 19.770292-16.304 35.79728-36.416 35.79728-20.112 0-36.416-16.026988-36.416-35.79728 0-19.770291 16.304-35.797279 36.416-35.797279 20.112 0 36.416 16.026988 36.416 35.797279z"
               fill="#b3b3b3"
               stroke="#000"
               stroke-width=".87924373"
               transform="matrix(1.1435381 0 0 1.1311776 -37.599869 -9.000601)"
               id="path406" />
            <path
               d="m264.28116 62.110374c0 19.770292-16.304 35.79728-36.416 35.79728-20.112 0-36.416-16.026988-36.416-35.79728 0-19.770291 16.304-35.797279 36.416-35.797279 20.112 0 36.416 16.026988 36.416 35.797279z"
               fill="#b3b3b3"
               stroke="#000"
               stroke-width="1.01612413"
               transform="matrix(.98949395 0 0 .97879851 -2.4985748 .46372106)"
               id="path408" />
            <g
               fill="none"
               stroke="#6a6a6a"
               stroke-width="1.79999995"
               transform="translate(.70710678 .35355339)"
               id="g410">
              <path
                 d="m230.6052 30.909289c12.25473 10.747388 3.75247 23.186743-3.97748 25.721009 4.6816-22.280577 25.493-8.476263 26.51651-5.656854-18.47901 4.170867-29.63368-6.793071-22.53903-20.064155z"
                 id="path412" />
              <path
                 d="m213.6087 30.909289c-12.25473 10.747388-3.75247 23.186743 3.97748 25.721009-4.6816-22.280577-25.493-8.476263-26.51651-5.656854 18.47901 4.170867 29.63368-6.793071 22.53903-20.064155z"
                 id="path414" />
            </g>
            <g
               fill="none"
               stroke="#6a6a6a"
               stroke-width="1.79999995"
               transform="matrix(1 0 0 -1 .70710678 122.13579)"
               id="g416">
              <path
                 d="m230.6052 30.909289c12.25473 10.747388 3.75247 23.186743-3.97748 25.721009 4.6816-22.280577 25.493-8.476263 26.51651-5.656854-18.47901 4.170867-29.63368-6.793071-22.53903-20.064155z"
                 id="path418" />
              <path
                 d="m213.6087 30.909289c-12.25473 10.747388-3.75247 23.186743 3.97748 25.721009-4.6816-22.280577-25.493-8.476263-26.51651-5.656854 18.47901 4.170867 29.63368-6.793071 22.53903-20.064155z"
                 id="path420" />
            </g>
          </g>
        </g>
        <path
           d="m647.79182 142.22797c0 5.05202-3.51041 9.14749-7.84071 9.14749-4.3303 0-7.84071-4.09547-7.84071-9.14749 0-5.05202 3.51041-9.1475 7.84071-9.1475 4.3303 0 7.84071 4.09548 7.84071 9.1475z"
           fill="#b3b3b3"
           transform="matrix(.41252583 0 0 .37755098 596.31365 322.0004)"
           id="path422" />
        <path
           d="m647.79182 142.22797c0 5.05202-3.51041 9.14749-7.84071 9.14749-4.3303 0-7.84071-4.09547-7.84071-9.14749 0-5.05202 3.51041-9.1475 7.84071-9.1475 4.3303 0 7.84071 4.09548 7.84071 9.1475z"
           fill="#b3b3b3"
           transform="matrix(.41252583 0 0 .37755098 668.56365 253.0004)"
           id="path424" />
        <path
           d="m647.79182 142.22797c0 5.05202-3.51041 9.14749-7.84071 9.14749-4.3303 0-7.84071-4.09547-7.84071-9.14749 0-5.05202 3.51041-9.1475 7.84071-9.1475 4.3303 0 7.84071 4.09548 7.84071 9.1475z"
           fill="#b3b3b3"
           transform="matrix(-.41252583 0 0 .37755098 968.3076 321.29302)"
           id="path426" />
        <path
           d="m647.79182 142.22797c0 5.05202-3.51041 9.14749-7.84071 9.14749-4.3303 0-7.84071-4.09547-7.84071-9.14749 0-5.05202 3.51041-9.1475 7.84071-9.1475 4.3303 0 7.84071 4.09548 7.84071 9.1475z"
           fill="#b3b3b3"
           transform="matrix(-.41252583 0 0 .37755098 896.0576 252.29302)"
           id="path428" />
      </g>
    </g>

  </g>
</svg>
