<?xml version="1.0" encoding="UTF-8" standalone="no"?>
<svg
   xmlns:dc="http://purl.org/dc/elements/1.1/"
   xmlns:cc="http://creativecommons.org/ns#"
   xmlns:rdf="http://www.w3.org/1999/02/22-rdf-syntax-ns#"
   xmlns:svg="http://www.w3.org/2000/svg"
   xmlns="http://www.w3.org/2000/svg"
   viewBox="0 0 258.66666 258.66666"
   height="258.66666"
   width="258.66666"
   xml:space="preserve"
   id="svg2"
   version="1.1"><metadata
     id="metadata8"><rdf:RDF><cc:Work
         rdf:about=""><dc:format>image/svg+xml</dc:format><dc:type
           rdf:resource="http://purl.org/dc/dcmitype/StillImage" /><dc:title></dc:title></cc:Work></rdf:RDF></metadata><defs
     id="defs6" /><g
     transform="matrix(1.3333333,0,0,-1.3333333,0,258.66667)"
     id="g10"><g
       transform="scale(0.1)"
       id="g12"><path
         id="path14"
         style="fill:#ffffff;fill-opacity:1;fill-rule:evenodd;stroke:none"
         d="M 2.59766,1933.23 H 1930.16 V 5.66797 H 2.59766 V 1933.23" /><path
         id="path16"
         style="fill:#c5a517;fill-opacity:1;fill-rule:evenodd;stroke:none"
         d="m 87.6367,1656.53 c 0,0 281.5083,-10.27 483.4373,-185.68 v -201.92 c 0,0 -118.933,286.63 -482.5818,337.12 l -0.8555,50.48" /><path
         id="path18"
         style="fill:#c5a517;fill-opacity:1;fill-rule:evenodd;stroke:none"
         d="m 738.777,1639.41 v -167.7 c -239.578,163.42 -481.722,184.82 -481.722,184.82 v 50.48 c 0,0 327.711,-14.55 481.722,-67.6" /><path
         id="path20"
         style="fill:#c5a517;fill-opacity:1;fill-rule:evenodd;stroke:none"
         d="m 908.195,1725.84 c -124.066,5.98 -413.273,20.53 -413.273,20.53 l 0.855,-39.36 c 0,0 237.012,-20.54 413.274,-67.6 l -0.856,86.43" /><path
         id="path22"
         style="fill:#282e6d;fill-opacity:1;fill-rule:evenodd;stroke:none"
         d="m 908.195,1275.77 11.977,5.13 c 8.558,3.42 8.558,7.7 8.558,25.67 v 106.95 c 0,8.56 -2.566,11.13 -8.558,13.69 l -10.266,4.28 v 5.14 h 32.512 l 2.57,-1.71 c 5.989,-7.71 17.969,-25.67 32.512,-44.5 l 58.18,-78.72 c 0.86,-2.56 2.57,-4.27 3.43,-4.27 1.71,0 1.71,2.56 1.71,6.84 v 95.83 c 0,11.98 -0.86,12.84 -10.27,17.11 l -12.84,4.28 v 5.14 h 56.48 v -5.14 l -6.85,-1.71 c -14.54,-5.13 -14.54,-6.84 -14.54,-24.81 v -95.83 c 0,-15.41 0.85,-31.66 0.85,-35.94 l -1.71,-2.57 h -10.26 l -2.57,2.57 c -4.28,4.28 -11.98,15.4 -23.96,31.66 l -66.74,88.99 c -3.422,4.28 -5.133,6.84 -5.992,6.84 -1.711,0 -1.711,-2.56 -1.711,-5.99 v -95.83 c 0,-11.12 -0.852,-15.4 9.414,-17.97 l 15.402,-5.13 v -5.14 h -57.328 v 5.14" /><path
         id="path24"
         style="fill:#282e6d;fill-opacity:1;fill-rule:evenodd;stroke:none"
         d="m 1155.47,1306.57 c 0,-5.99 -0.85,-17.11 -5.99,-21.39 -5.13,-2.57 -11.12,-5.99 -20.53,-5.99 -14.55,0 -23.96,10.27 -23.96,27.38 0,9.41 4.28,16.26 12.83,18.82 8.56,2.57 26.53,5.14 31.66,5.14 5.99,0 5.99,-1.71 5.99,-6.85 z m 36.8,-35.94 v 5.14 l -11.13,3.42 c -7.7,2.57 -6.84,4.28 -6.84,16.26 v 59.89 c 0,23.96 -6.85,38.51 -34.23,38.51 -12.83,0 -23.1,-3.43 -25.67,-5.99 -1.71,-1.72 -2.56,-2.57 -3.42,-3.43 l -15.4,-14.54 4.28,-4.28 c 6.84,5.99 17.11,14.55 31.66,14.55 18.82,0 23.95,-9.41 23.95,-33.37 0,-2.57 -0.85,-4.28 -2.56,-5.14 -1.71,-1.71 -28.24,-5.13 -43.64,-10.26 -3.42,-1.72 -24.81,-11.13 -24.81,-30.81 0,-19.68 12.83,-33.37 34.22,-33.37 20.54,0 25.67,11.13 32.52,11.13 3.42,0 5.13,-4.28 6.84,-7.71 h 34.23" /><path
         id="path26"
         style="fill:#282e6d;fill-opacity:1;fill-rule:evenodd;stroke:none"
         d="m 1260.71,1270.63 c -6.83,-2.56 -8.55,-3.42 -13.68,-3.42 -21.39,0 -27.38,6.85 -27.38,29.09 v 76.15 c 0,5.99 -0.86,7.71 -5.99,8.56 l -11.98,2.57 v 5.13 l 12.83,2.57 c 6.85,0.85 6.85,2.57 8.56,9.41 l 5.99,23.1 h 5.99 l 4.27,-24.81 c 0.86,-5.99 1.72,-5.99 11.13,-7.7 l 15.4,-2.57 v -5.13 l -15.4,-2.57 c -11.98,-1.71 -11.98,-2.57 -11.98,-11.98 v -58.18 c 0,-22.25 4.28,-32.51 22.24,-32.51 2.58,0 6,0.85 8.56,0.85 l 0.86,-4.28 -9.42,-4.28" /><path
         id="path28"
         style="fill:#282e6d;fill-opacity:1;fill-rule:evenodd;stroke:none"
         d="m 1288.95,1275.77 11.12,3.42 c 7.71,2.57 7.71,3.42 7.71,16.26 v 71.87 c 0,11.12 -0.86,11.12 -8.56,12.84 l -11.12,3.42 v 3.42 l 36.79,5.99 0.86,-1.71 v -95.83 c 0,-11.98 0,-13.69 7.7,-16.26 l 11.12,-3.42 v -5.14 h -55.62 z m 15.41,154.87 c 0,8.56 5.13,12.83 12.83,12.83 6.85,0 12.83,-4.27 12.83,-12.83 0,-7.7 -5.98,-12.84 -12.83,-12.84 -7.7,0 -12.83,5.14 -12.83,12.84" /><path
         id="path30"
         style="fill:#282e6d;fill-opacity:1;fill-rule:evenodd;stroke:none"
         d="m 1383.07,1335.66 c 0,30.8 8.56,47.92 31.66,47.92 25.67,0 36.79,-20.54 36.79,-52.19 0,-30.81 -6.84,-53.91 -32.51,-53.91 -23.1,0 -35.94,17.97 -35.94,58.18 z m 29.09,-68.45 c 38.51,0 59.05,23.96 59.05,71.02 0,38.5 -19.69,55.62 -51.34,55.62 -28.24,0 -57.33,-16.26 -57.33,-61.61 0,-38.51 13.69,-65.03 49.62,-65.03" /><path
         id="path32"
         style="fill:#282e6d;fill-opacity:1;fill-rule:evenodd;stroke:none"
         d="m 1491.74,1275.77 11.12,3.42 c 7.71,2.57 7.71,4.28 7.71,16.26 v 71.87 c 0,10.27 0,11.12 -7.71,12.84 l -10.26,3.42 v 3.42 l 33.36,5.99 c 1.72,-4.28 2.57,-11.12 6,-11.12 5.13,0 14.54,11.98 36.79,11.98 15.4,0 34.22,-5.99 34.22,-39.36 v -59.04 c 0,-11.98 0,-13.69 7.7,-16.26 l 11.13,-3.42 v -5.14 h -55.62 v 5.14 l 11.12,3.42 c 6.85,2.57 6.85,3.42 6.85,16.26 v 50.48 c 0,21.39 -4.28,35.94 -28.24,35.94 -9.41,0 -26.52,-2.57 -26.52,-23.96 v -62.46 c 0,-11.98 0,-13.69 6.84,-16.26 l 11.13,-3.42 v -5.14 h -55.62 v 5.14" /><path
         id="path34"
         style="fill:#282e6d;fill-opacity:1;fill-rule:evenodd;stroke:none"
         d="m 1708.21,1306.57 c 0,-5.99 0,-17.11 -5.98,-21.39 -4.28,-2.57 -10.27,-5.99 -19.68,-5.99 -15.41,0 -24.82,10.27 -24.82,27.38 0,9.41 4.28,16.26 13.69,18.82 8.56,2.57 25.67,5.14 30.81,5.14 5.98,0 5.98,-1.71 5.98,-6.85 z m 37.65,-35.94 v 5.14 l -11.12,3.42 c -7.7,2.57 -7.7,4.28 -7.7,16.26 v 59.89 c 0,23.96 -6.84,38.51 -33.37,38.51 -12.83,0 -23.1,-3.43 -26.53,-5.99 -1.71,-1.72 -2.56,-2.57 -3.42,-3.43 l -14.54,-14.54 3.42,-4.28 c 6.85,5.99 17.97,14.55 31.66,14.55 18.82,0 23.95,-9.41 23.95,-33.37 0,-2.57 0,-4.28 -1.71,-5.14 -2.56,-1.71 -29.09,-5.13 -43.63,-10.26 -4.28,-1.72 -25.67,-11.13 -25.67,-30.81 0,-19.68 13.69,-33.37 34.22,-33.37 21.4,0 25.67,11.13 33.37,11.13 2.57,0 4.28,-4.28 6,-7.71 h 35.07" /><path
         id="path36"
         style="fill:#282e6d;fill-opacity:1;fill-rule:evenodd;stroke:none"
         d="m 1762.98,1275.77 11.12,3.42 c 7.7,2.57 7.7,4.28 7.7,16.26 v 127.49 c 0,9.41 0,11.98 -7.7,13.69 l -11.12,2.57 v 4.27 l 35.08,5.99 2.57,-1.71 v -152.3 c 0,-11.98 -0.86,-13.69 7.69,-16.26 l 10.27,-3.42 v -5.14 h -55.61 v 5.14" /><path
         id="path38"
         style="fill:#282e6d;fill-opacity:1;fill-rule:evenodd;stroke:none"
         d="m 1041.68,1033.62 c -5.14,-12.83 -11.13,-25.67 -15.41,-29.09 -3.42,-2.57 -19.68,-7.702 -44.493,-7.702 -47.058,0 -72.726,29.092 -72.726,83.002 0,63.31 38.504,88.98 86.418,88.98 18.821,0 47.911,-5.99 47.911,-23.95 0,-1.72 -0.85,-4.28 -1.7,-5.14 l -7.71,-17.11 h -4.27 c -2.57,17.11 -18.83,34.22 -47.067,34.22 -35.078,0 -50.481,-23.1 -50.481,-71.01 0,-47.06 17.114,-77.01 56.473,-77.01 32.515,0 45.345,24.81 51.335,35.94 l 5.99,-2.57 -4.27,-8.56" /><path
         id="path40"
         style="fill:#282e6d;fill-opacity:1;fill-rule:evenodd;stroke:none"
         d="m 1085.31,1064.42 c 0,30.81 8.56,47.92 31.66,47.92 24.82,0 36.79,-20.54 36.79,-52.2 0,-30.8 -6.84,-53.9 -32.51,-53.9 -23.1,0 -35.94,17.97 -35.94,58.18 z m 29.09,-67.592 c 38.51,0 59.04,23.102 59.04,70.162 0,38.51 -19.68,55.62 -51.33,55.62 -28.24,0 -57.33,-16.26 -57.33,-61.61 0,-38.5 13.68,-64.172 49.62,-64.172" /><path
         id="path42"
         style="fill:#282e6d;fill-opacity:1;fill-rule:evenodd;stroke:none"
         d="m 1190.55,1004.53 11.13,3.42 c 7.7,2.57 7.7,4.28 7.7,17.12 v 126.63 c 0,9.41 -0.86,11.98 -7.7,13.69 l -11.13,2.57 v 5.13 l 35.09,5.13 2.56,-1.7 v -151.45 c 0,-12.84 -0.85,-14.55 6.85,-17.12 l 11.12,-3.42 v -5.132 h -55.62 v 5.132" /><path
         id="path44"
         style="fill:#282e6d;fill-opacity:1;fill-rule:evenodd;stroke:none"
         d="m 1259.01,1004.53 11.12,3.42 c 7.7,2.57 7.7,4.28 7.7,17.12 v 126.63 c 0,9.41 0,11.98 -7.7,13.69 l -11.12,2.57 v 5.13 l 35.08,5.13 2.56,-1.7 v -151.45 c 0,-12.84 -0.85,-14.55 7.71,-17.12 l 10.26,-3.42 v -5.132 h -55.61 v 5.132" /><path
         id="path46"
         style="fill:#282e6d;fill-opacity:1;fill-rule:evenodd;stroke:none"
         d="m 1360.83,1072.13 c -7.7,0 -10.27,0 -10.27,7.7 0,13.69 7.7,32.51 28.24,32.51 19.67,0 31.65,-17.11 31.65,-34.23 0,-5.13 -2.56,-5.98 -8.55,-5.98 z m 64.17,-58.19 -1.71,4.28 c -7.7,-4.28 -17.97,-8.56 -30.81,-8.56 -35.93,0 -41.92,31.66 -41.92,44.5 0,7.7 3.42,7.7 11.12,7.7 h 59.04 c 3.42,0 4.28,0 5.99,1.71 2.57,1.71 3.42,1.71 3.42,6.84 0,46.21 -28.23,52.2 -43.63,52.2 -31.66,0 -56.48,-21.39 -56.48,-60.75 0,-41.93 17.97,-65.032 51.34,-65.032 11.98,0 25.67,2.57 31.66,7.702 l 11.98,9.41" /><path
         id="path48"
         style="fill:#282e6d;fill-opacity:1;fill-rule:evenodd;stroke:none"
         d="m 1472.91,1087.53 c 0,14.54 8.56,24.81 25.68,24.81 17.11,0 28.23,-13.69 28.23,-30.8 0,-16.26 -9.41,-25.67 -24.81,-25.67 -16.26,0 -29.1,12.83 -29.1,31.66 z m 87.28,37.65 -2.57,3.42 -20.53,-8.56 c -2.57,-0.85 -5.13,-2.57 -7.7,-2.57 -3.43,0 -9.41,5.14 -24.82,5.14 -27.38,0 -52.19,-13.69 -52.19,-41.93 0,-12.83 5.99,-18.82 10.27,-23.95 5.13,-5.14 12.83,-5.14 12.83,-7.71 0,-2.56 -2.57,-3.42 -7.7,-5.98 -2.57,-1.72 -5.13,-2.57 -5.99,-5.14 -3.42,-7.7 -5.99,-15.4 -5.99,-17.97 0,-6.84 13.69,-9.41 13.69,-13.69 0,-5.13 -21.39,-0.85 -21.39,-23.099 0,-28.235 20.54,-41.071 54.76,-41.071 29.95,0 55.62,17.969 55.62,50.481 0,17.109 -7.7,24.819 -22.25,29.089 -5.99,1.72 -15.4,1.72 -28.23,1.72 -26.53,0 -35.09,0 -35.09,9.41 0.86,10.27 10.27,13.69 26.53,13.69 22.25,0 47.92,11.97 47.92,39.36 0,10.26 -4.28,16.25 -4.28,18.82 0,2.57 2.56,4.28 4.28,5.99 z m -93.26,-139.473 c 0,20.533 22.24,23.103 37.64,23.103 19.68,0 35.09,-5.99 35.09,-24.818 0,-19.676 -11.13,-31.656 -32.52,-31.656 -24.81,0 -40.21,11.98 -40.21,33.371" /><path
         id="path50"
         style="fill:#282e6d;fill-opacity:1;fill-rule:evenodd;stroke:none"
         d="m 1606.39,1072.13 c -7.69,0 -10.26,0 -10.26,7.7 0,13.69 7.7,32.51 28.23,32.51 19.68,0 31.66,-17.11 31.66,-34.23 0,-5.13 -2.56,-5.98 -8.55,-5.98 z m 64.18,-58.19 -1.71,4.28 c -7.7,-4.28 -17.97,-8.56 -30.81,-8.56 -35.93,0 -41.92,31.66 -41.92,44.5 0,7.7 3.42,7.7 11.12,7.7 h 59.04 c 3.42,0 3.42,0 5.99,1.71 2.57,1.71 3.42,1.71 3.42,6.84 0,46.21 -28.23,52.2 -43.64,52.2 -31.65,0 -56.47,-21.39 -56.47,-60.75 0,-41.93 17.97,-65.032 51.34,-65.032 11.98,0 25.67,2.57 31.66,7.702 l 11.98,9.41" /><path
         id="path52"
         style="fill:#282e6d;fill-opacity:1;fill-rule:evenodd;stroke:none"
         d="m 907.34,705.91 14.547,5.137 c 9.41,3.422 10.265,5.988 10.265,29.09 v 124.066 c 0,22.25 0,25.672 -10.265,29.094 l -14.547,4.281 v 5.988 h 74.437 v -5.988 l -14.543,-4.281 c -10.265,-3.422 -10.265,-5.988 -10.265,-29.094 V 740.137 c 0,-23.957 0,-25.668 10.265,-29.09 l 14.543,-5.137 v -5.133 H 907.34 v 5.133" /><path
         id="path54"
         style="fill:#282e6d;fill-opacity:1;fill-rule:evenodd;stroke:none"
         d="m 1000.61,705.91 12.83,4.278 c 9.41,3.425 9.41,5.136 9.41,20.539 v 88.984 c 0,11.98 0,12.836 -9.41,15.402 l -11.98,3.422 v 5.137 l 41.92,5.988 c 1.72,-5.988 2.57,-13.691 6,-13.691 1.71,0 10.26,5.988 18.82,11.98 4.28,2.567 10.26,3.422 14.55,3.422 9.41,0 18.82,-3.422 18.82,-10.269 0,-1.711 -0.86,-3.422 -0.86,-5.133 l -6.84,-17.965 h -5.14 c -2.56,7.695 -4.27,14.543 -19.68,14.543 -18.82,0 -23.1,-10.266 -23.1,-23.102 v -78.718 c 0,-16.258 0,-17.969 10.27,-20.539 l 15.4,-4.278 v -5.133 h -71.01 v 5.133" /><path
         id="path56"
         style="fill:#282e6d;fill-opacity:1;fill-rule:evenodd;stroke:none"
         d="m 1152.05,788.91 c -8.55,0 -11.98,0 -11.98,10.266 0,16.258 9.41,40.215 34.23,40.215 23.95,0 38.5,-22.246 38.5,-42.782 0,-6.847 -3.42,-7.699 -10.26,-7.699 z m 78.72,-71.019 -2.57,5.132 c -9.41,-5.988 -21.39,-10.265 -36.79,-10.265 -44.49,0 -52.19,38.504 -52.19,54.758 0,8.558 5.13,8.558 13.69,8.558 h 71.87 c 5.13,0 5.13,0 8.56,2.567 2.57,1.711 3.42,1.711 3.42,8.558 0,57.328 -34.22,64.172 -53.05,64.172 -38.5,0 -69.31,-26.527 -69.31,-75.297 0,-51.336 22.25,-79.574 62.46,-79.574 15.41,0 31.66,3.422 39.36,9.41 l 14.55,11.981" /><path
         id="path58"
         style="fill:#282e6d;fill-opacity:1;fill-rule:evenodd;stroke:none"
         d="m 1253.88,705.91 13.68,4.278 c 9.42,3.425 9.42,5.136 9.42,20.539 v 155.726 c 0,11.125 0,14.547 -9.42,17.113 l -13.68,3.422 v 5.133 l 43.63,6.848 2.56,-1.715 V 730.727 c 0,-15.403 0,-17.114 9.42,-20.539 l 13.69,-4.278 v -5.133 h -69.3 v 5.133" /><path
         id="path60"
         style="fill:#282e6d;fill-opacity:1;fill-rule:evenodd;stroke:none"
         d="m 1430.99,744.414 c 0,-7.699 -0.86,-21.391 -7.7,-26.523 -5.99,-3.422 -12.84,-6.844 -23.96,-7.703 -18.83,0 -29.95,12.835 -29.95,34.226 0,11.125 5.14,19.684 16.26,23.102 10.27,3.425 31.66,6.847 37.65,6.847 7.7,0 7.7,-2.566 7.7,-8.554 z m 45.35,-43.637 v 5.133 l -13.69,4.278 c -9.41,3.425 -8.56,5.992 -8.56,20.539 v 74.441 c 0,29.09 -8.55,47.059 -41.93,47.059 -15.39,0 -27.37,-5.137 -31.66,-7.7 -1.7,-1.714 -2.56,-2.57 -4.27,-4.277 l -17.97,-17.969 5.13,-5.136 c 7.7,7.699 21.4,17.968 37.65,17.968 23.1,0 29.95,-11.976 29.95,-41.07 0,-2.566 -0.86,-5.133 -2.57,-6.844 -2.56,-1.715 -35.08,-5.992 -53.05,-11.98 -5.13,-1.711 -31.66,-14.543 -31.66,-38.504 0,-24.813 16.26,-40.215 41.93,-40.215 25.67,0 31.66,12.836 40.22,12.836 3.42,0 5.98,-5.137 7.69,-8.559 h 42.79" /><path
         id="path62"
         style="fill:#282e6d;fill-opacity:1;fill-rule:evenodd;stroke:none"
         d="m 1492.6,705.91 13.69,4.278 c 9.41,3.425 9.41,5.136 9.41,20.539 v 88.128 c 0,12.836 0,13.692 -9.41,16.258 l -12.84,3.422 v 5.137 l 41.93,5.988 c 1.71,-5.133 2.57,-11.98 6.84,-11.98 5.99,0 17.97,14.547 44.49,14.547 19.68,0 42.79,-7.7 42.79,-48.774 v -72.726 c 0,-14.547 0,-17.114 9.41,-20.539 l 13.69,-4.278 v -5.133 h -69.31 v 5.133 l 13.69,4.278 c 9.41,3.425 9.41,5.136 9.41,20.539 v 62.461 c 0,26.523 -5.98,44.492 -35.08,44.492 -11.97,0 -32.51,-3.422 -32.51,-29.95 v -77.003 c 0,-14.547 0,-17.114 8.56,-20.539 l 13.69,-4.278 v -5.133 h -68.45 v 5.133" /><path
         id="path64"
         style="fill:#282e6d;fill-opacity:1;fill-rule:evenodd;stroke:none"
         d="m 1773.25,742.707 c 0,-15.406 -3.43,-21.394 -8.56,-25.672 -8.56,-5.133 -18.83,-6.847 -26.53,-6.847 -31.66,0 -41.07,29.093 -41.07,70.164 0,41.929 11.12,59.039 41.07,59.039 5.99,0 20.54,-0.856 27.38,-7.7 6,-5.132 7.71,-9.41 7.71,-28.238 z m 46.2,-41.93 v 5.133 l -13.69,4.278 c -9.41,3.425 -9.41,4.281 -9.41,20.539 v 186.527 l -2.57,1.715 -45.35,-6.848 v -5.133 l 13.69,-3.422 c 11.13,-2.566 11.13,-4.281 11.13,-17.113 v -29.09 c 0,-7.703 -0.86,-7.703 -2.57,-7.703 -4.28,0 -7.7,0 -11.13,0.856 -3.42,0.855 -7.7,0.855 -14.54,0.855 -36.8,0 -72.73,-20.535 -72.73,-83.855 0,-41.922 13.69,-71.016 55.62,-71.016 25.67,0 34.22,13.688 41.06,13.688 3.43,0 5.14,-5.989 6.85,-9.411 h 43.64" /><path
         id="path66"
         style="fill:#282e6d;fill-opacity:1;fill-rule:evenodd;stroke:none"
         d="m 1729.61,1075.55 c 0,12.83 5.13,43.64 26.52,43.64 10.27,0 14.55,-6.85 14.55,-19.69 0,-17.11 -5.99,-43.63 -24.82,-43.63 -12.83,0 -16.25,6.84 -16.25,19.68 z m 10.27,-24.82 c 34.22,0 42.78,32.52 42.78,49.63 0,15.4 -7.7,23.96 -22.25,23.96 -29.09,0 -42.78,-24.82 -42.78,-50.48 0,-17.11 10.27,-23.11 22.25,-23.11" /><path
         id="path68"
         style="fill:#282e6d;fill-opacity:1;fill-rule:evenodd;stroke:none"
         d="m 1787.79,1019.93 c 0.85,2.57 3.42,12.84 6.85,29.09 0.85,5.99 2.56,12.84 3.42,19.68 l 6.84,41.07 c 0.86,0.86 0.86,2.57 0.86,3.43 0,1.71 -0.86,2.56 -4.28,3.42 l -7.7,0.85 v 3.42 l 7.7,0.86 c 6.84,0.86 5.99,2.57 6.84,6.85 1.72,3.42 1.72,7.7 5.14,13.69 5.99,11.98 16.26,14.54 22.25,14.54 2.56,0 5.99,0 6.84,-1.7 1.71,-0.86 2.57,-2.58 2.57,-3.43 0,-0.86 0,-2.57 0,-3.42 l -3.42,-7.7 h -2.57 c 0,2.56 -2.57,10.26 -9.41,10.26 -10.27,0 -11.13,-15.4 -11.13,-24.81 0,-3.42 0.86,-3.42 5.14,-4.28 l 11.98,-1.71 -0.86,-3.42 -11.98,-0.86 c -4.28,-0.85 -5.13,-0.85 -5.99,-5.99 l -11.12,-47.91 c -3.42,-15.4 -5.99,-27.38 -10.27,-34.23 l -5.13,-7.7 h -2.57" /><path
         id="path70"
         style="fill:#c5a517;fill-opacity:1;fill-rule:evenodd;stroke:none"
         d="m 914.184,385.047 7.703,2.566 c 5.988,2.567 5.133,4.282 6.843,12.836 l 11.125,60.75 c 0.852,0.856 0.852,0.856 0.852,1.711 0,2.567 -1.707,2.567 -7.699,2.567 -13.692,0 -12.836,-2.567 -16.258,-6.844 l -5.988,-8.555 h -4.282 l 3.426,19.676 0.856,0.855 h 71.871 l 0.859,-0.855 -3.422,-19.676 h -3.425 l -2.567,8.555 c -2.566,5.137 -3.422,6.844 -14.547,6.844 -6.843,0 -8.554,0 -9.41,-4.278 L 939,398.738 c -0.859,-1.711 -1.715,-5.133 -1.715,-6.843 0,-1.715 1.715,-3.422 5.992,-4.282 l 6.844,-2.566 -0.855,-2.567 h -35.938 l 0.856,2.567" /><path
         id="path72"
         style="fill:#c5a517;fill-opacity:1;fill-rule:evenodd;stroke:none"
         d="m 994.613,384.191 c -1.711,-0.855 -6.843,-2.566 -9.41,-2.566 -0.855,0 -3.426,2.566 -3.426,5.988 0,0.86 0,1.715 0,1.715 l 13.692,55.613 c 1.715,6.848 4.277,18.829 4.277,21.391 0,0.859 0,2.57 -4.277,3.422 l -5.989,0.855 v 1.715 c 7.704,1.711 15.4,4.278 18.82,4.278 1.72,0 3.43,-0.856 3.43,-1.711 0,-0.856 -0.86,-1.711 -0.86,-2.567 l -6.85,-26.523 c 0,-0.86 0,-1.715 0,-2.571 0,-0.855 0,-0.855 0.86,-0.855 2.57,0 11.12,5.133 22.25,5.133 7.7,0 11.98,-2.567 11.98,-7.699 0,-3.422 -0.86,-5.989 -1.71,-9.414 l -5.99,-24.813 c -0.86,-4.277 -1.71,-7.699 -1.71,-11.977 0,-4.277 3.42,-5.992 6.84,-5.992 4.28,0 10.27,3.422 12.84,5.137 l -0.86,-3.422 c -3.42,-2.57 -10.27,-8.558 -17.97,-8.558 -5.99,0 -10.26,4.277 -11.12,10.265 0,2.57 1.71,5.992 2.56,9.414 l 5.99,26.524 c 0.86,2.57 1.72,5.136 1.72,7.703 0,4.277 -3.43,7.699 -9.41,7.699 -5.14,0 -17.12,-0.855 -20.544,-17.969 l -6.844,-26.523 c -0.855,-2.567 -0.855,-4.278 -0.855,-7.703 0,-1.707 0,-3.422 2.566,-4.278 v -1.711" /><path
         id="path74"
         style="fill:#c5a517;fill-opacity:1;fill-rule:evenodd;stroke:none"
         d="m 1074.19,417.563 c -2.57,-0.856 -4.28,-0.856 -5.99,-0.856 -0.86,0 -1.71,0.856 -1.71,0.856 0,1.71 4.28,25.667 21.39,25.667 6.84,0 9.41,-4.277 9.41,-10.265 0,-9.41 -7.7,-12.836 -15.4,-13.692 z m 27.38,-23.102 c -3.42,-1.711 -14.55,-6.848 -23.11,-6.848 -11.12,0 -13.68,7.703 -13.68,17.114 0,4.277 0,5.136 0.85,5.992 0.86,0.855 5.14,1.711 9.41,2.562 l 8.56,1.715 c 7.7,0.856 16.26,3.422 18.83,6.844 3.42,3.422 5.13,8.555 5.13,12.836 0,9.41 -6.85,12.832 -15.4,12.832 -25.67,0 -38.51,-26.524 -38.51,-47.059 0,-12.836 6.85,-19.679 18.83,-19.679 11.98,0 23.1,6.843 28.23,9.41 l 0.86,4.281" /><path
         id="path76"
         style="fill:#c5a517;fill-opacity:1;fill-rule:evenodd;stroke:none"
         d="m 1194.83,390.18 c -5.13,-3.422 -15.4,-9.41 -27.38,-9.41 -8.56,0 -17.97,5.132 -17.97,19.679 0,11.981 4.28,25.668 10.27,34.227 6.85,8.554 16.26,12.832 27.38,12.832 4.28,0 10.27,-0.852 11.98,-3.422 0.86,-1.711 1.71,-3.422 1.71,-4.277 0,-1.711 -0.85,-2.567 -1.71,-3.422 l -4.28,-8.555 h -1.71 c -0.85,4.277 -1.71,15.398 -11.98,15.398 -12.83,0 -20.53,-25.667 -20.53,-39.359 0,-10.266 4.28,-16.258 13.69,-16.258 6.84,0 16.25,4.282 21.39,6.848 l -0.86,-4.281" /><path
         id="path78"
         style="fill:#c5a517;fill-opacity:1;fill-rule:evenodd;stroke:none"
         d="m 1213.66,403.871 c 0,11.981 4.28,39.359 23.95,39.359 9.42,0 13.69,-6.843 13.69,-17.113 0,-16.254 -5.98,-40.215 -23.1,-40.215 -11.12,0 -14.54,5.993 -14.54,17.969 z m 9.41,-23.101 c 30.81,0 38.5,29.949 38.5,45.347 0,14.547 -6.84,21.391 -20.53,21.391 -25.67,0 -38.5,-22.246 -38.5,-45.348 0,-15.402 9.41,-21.39 20.53,-21.39" /><path
         id="path80"
         style="fill:#c5a517;fill-opacity:1;fill-rule:evenodd;stroke:none"
         d="m 1300.07,390.18 c -3.42,-2.567 -11.12,-9.41 -17.96,-9.41 -4.28,0 -10.27,2.566 -10.27,11.98 0,0.855 0,3.422 0.86,5.133 l 11.12,47.918 c 1.71,5.988 4.28,17.969 4.28,20.531 0,0.859 -0.86,2.57 -4.28,3.422 l -5.99,0.855 v 1.715 c 7.7,1.711 15.4,4.278 18.82,4.278 1.72,0 3.42,-0.856 3.42,-1.711 0,-0.856 -0.85,-1.711 -0.85,-2.567 l -14.54,-59.894 c -1.72,-5.989 -3.43,-11.125 -3.43,-17.114 0,-5.136 2.57,-7.703 5.99,-7.703 5.14,0 10.27,4.282 13.69,6.848 l -0.86,-4.281" /><path
         id="path82"
         style="fill:#c5a517;fill-opacity:1;fill-rule:evenodd;stroke:none"
         d="m 1336.01,390.18 c -2.56,-2.567 -11.12,-9.41 -17.97,-9.41 -3.42,0 -10.26,2.566 -10.26,11.98 0,0.855 0.85,3.422 0.85,5.133 l 11.13,47.918 c 1.71,5.988 4.28,17.969 4.28,20.531 0,0.859 0,2.57 -4.28,3.422 l -5.99,0.855 v 1.715 c 7.7,1.711 16.25,4.278 18.82,4.278 1.71,0 3.42,-0.856 3.42,-1.711 0,-0.856 0,-1.711 -0.85,-2.567 l -14.55,-59.894 c -1.71,-5.989 -2.57,-11.125 -2.57,-17.114 0,-5.136 1.72,-7.703 5.14,-7.703 5.13,0 11.12,4.282 13.69,6.848 l -0.86,-4.281" /><path
         id="path84"
         style="fill:#c5a517;fill-opacity:1;fill-rule:evenodd;stroke:none"
         d="m 1361.68,417.563 c -1.71,-0.856 -3.42,-0.856 -5.98,-0.856 -0.86,0 -0.86,0.856 -0.86,0.856 0,1.71 4.28,25.667 21.39,25.667 5.99,0 9.41,-4.277 9.41,-10.265 0,-9.41 -7.7,-12.836 -15.4,-13.692 z m 28.24,-23.102 c -3.42,-1.711 -14.55,-6.848 -23.1,-6.848 -11.98,0 -14.55,7.703 -14.55,17.114 0,4.277 0.86,5.136 1.71,5.992 0.86,0.855 5.14,1.711 9.41,2.562 l 7.7,1.715 c 7.71,0.856 16.26,3.422 19.69,6.844 2.56,3.422 5.13,8.555 5.13,12.836 0,9.41 -7.7,12.832 -15.41,12.832 -25.66,0 -38.5,-26.524 -38.5,-47.059 0,-12.836 5.99,-19.679 17.97,-19.679 12.84,0 23.96,6.843 29.09,9.41 l 0.86,4.281" /><path
         id="path86"
         style="fill:#c5a517;fill-opacity:1;fill-rule:evenodd;stroke:none"
         d="m 1415.59,427.832 c 0,8.555 5.99,16.254 14.54,16.254 8.56,0 12.84,-5.133 12.84,-12.832 0,-10.27 -5.99,-16.258 -15.4,-16.258 -7.7,0 -11.98,4.277 -11.98,12.836 z m 47.06,20.531 -1.71,2.571 -11.13,-4.278 c -0.85,0 -1.71,-0.855 -2.56,-0.855 -1.71,0 -7.7,1.707 -14.55,1.707 -17.11,0 -27.38,-9.41 -27.38,-21.391 0,-5.988 2.57,-8.554 4.28,-10.265 2.56,-1.711 4.28,-2.571 4.28,-4.278 0,-2.57 -5.14,-3.426 -7.7,-6.847 -1.72,-0.856 -1.72,-3.422 -1.72,-5.133 0,-3.422 5.14,-3.422 5.14,-5.989 0,-3.425 -17.12,-5.132 -17.12,-17.968 0,-13.692 11.98,-18.824 24.82,-18.824 21.39,0 34.22,11.121 34.22,23.957 0,5.988 -1.71,9.41 -9.41,12.835 -10.27,4.278 -27.38,5.133 -27.38,11.977 0,1.711 2.57,5.137 4.28,5.137 2.57,0 4.28,0 6.85,0 11.97,0 26.52,5.988 26.52,19.676 0,2.57 -0.86,5.992 -0.86,6.847 0,1.711 1.72,3.422 2.57,3.422 z m -60.75,-71.871 c 0,7.699 7.7,14.543 15.4,14.543 7.7,0 24.81,-4.277 24.81,-14.543 0,-8.558 -7.7,-15.402 -18.82,-15.402 -11.13,0 -21.39,5.137 -21.39,15.402" /><path
         id="path88"
         style="fill:#c5a517;fill-opacity:1;fill-rule:evenodd;stroke:none"
         d="m 1483.18,417.563 c -1.71,-0.856 -4.27,-0.856 -5.99,-0.856 -0.85,0 -1.71,0.856 -1.71,0.856 0,1.71 4.28,25.667 21.4,25.667 6.84,0 9.41,-4.277 9.41,-10.265 0,-9.41 -6.85,-12.836 -14.55,-13.692 z m 27.39,-23.102 c -3.43,-1.711 -14.55,-6.848 -23.11,-6.848 -11.12,0 -13.69,7.703 -13.69,17.114 0,4.277 0,5.136 0.86,5.992 0.85,0.855 5.99,1.711 10.26,2.562 l 7.71,1.715 c 7.7,0.856 16.25,3.422 18.82,6.844 3.42,3.422 5.99,8.555 5.99,12.836 0,9.41 -7.7,12.832 -16.26,12.832 -25.67,0 -37.65,-26.524 -37.65,-47.059 0,-12.836 5.99,-19.679 17.97,-19.679 11.98,0 23.1,6.843 29.1,9.41 v 4.281" /><path
         id="path90"
         style="fill:#c5a517;fill-opacity:1;fill-rule:evenodd;stroke:none"
         d="m 1558.48,353.391 c 0.86,2.562 3.42,11.976 5.99,26.523 1.71,5.988 2.57,11.121 3.42,17.969 l 6.84,36.793 c 0,0.855 0,2.566 0,3.422 0,0.855 0,1.711 -3.42,2.566 l -7.7,1.711 0.86,2.566 6.84,0.86 c 5.99,0.855 5.14,2.562 5.99,5.988 0.86,2.566 1.72,6.844 4.28,12.832 5.99,10.27 15.4,11.981 20.54,11.981 2.56,0 5.13,0 5.99,-0.856 1.71,-0.855 2.56,-2.566 2.56,-3.422 0,-0.855 0,-1.715 -0.85,-2.57 l -2.57,-7.699 h -1.71 c 0,2.566 -2.57,9.414 -8.56,9.414 -9.41,0 -10.27,-13.692 -10.27,-22.246 0,-2.567 0.86,-3.422 4.29,-3.422 l 11.12,-1.715 -0.86,-3.422 -11.12,-0.855 c -3.43,-0.856 -4.28,-0.856 -5.14,-5.133 l -9.41,-42.781 c -3.42,-14.547 -5.99,-25.668 -10.27,-31.661 l -4.27,-6.843 h -2.57" /><path
         id="path92"
         style="fill:#c5a517;fill-opacity:1;fill-rule:evenodd;stroke:none"
         d="m 1610.67,403.871 c 0,11.981 4.28,39.359 23.96,39.359 9.41,0 13.69,-6.843 13.69,-17.113 0,-16.254 -5.99,-40.215 -23.1,-40.215 -11.13,0 -14.55,5.993 -14.55,17.969 z m 9.42,-23.101 c 30.8,0 38.5,29.949 38.5,45.347 0,14.547 -6.84,21.391 -20.54,21.391 -25.66,0 -38.5,-22.246 -38.5,-45.348 0,-15.402 9.41,-21.39 20.54,-21.39" /><path
         id="path94"
         style="fill:#c5a517;fill-opacity:1;fill-rule:evenodd;stroke:none"
         d="m 1682.55,384.191 c -2.57,-0.855 -5.99,-2.566 -9.42,-2.566 -1.71,0 -3.42,3.422 -3.42,5.133 0,0.855 0,1.715 0,3.422 l 10.27,37.652 c 0.86,2.563 0.86,5.133 0.86,7.699 0,4.278 -3.43,5.133 -5.14,5.133 -2.57,0 -4.28,-0.855 -6.84,-0.855 l 0.85,3.421 c 2.57,0.856 9.42,4.278 13.69,4.278 1.71,0 3.42,-0.852 4.28,-2.567 1.71,-0.855 2.57,-2.566 3.42,-2.566 2.57,0 4.28,1.711 7.7,2.566 2.57,1.715 5.99,2.567 11.13,2.567 2.56,0 4.28,-0.852 4.28,-1.707 0.85,-0.86 1.71,-2.571 1.71,-3.426 0,-0.855 -0.86,-2.566 -1.71,-3.422 l -3.42,-5.988 h -1.72 c 0,1.711 -2.57,7.699 -7.7,7.699 -7.7,0 -11.12,-5.988 -13.69,-17.109 l -6.84,-25.672 c -0.86,-2.567 -1.71,-5.133 -1.71,-6.848 0,-4.277 1.71,-4.277 3.42,-5.133 v -1.711" /><path
         id="path96"
         style="fill:#c5a517;fill-opacity:1;fill-rule:evenodd;stroke:none"
         d="m 1794.64,410.719 c -1.71,-6.848 -3.43,-13.692 -6,-17.114 -3.42,-5.132 -11.12,-6.847 -13.68,-6.847 -7.7,0 -11.13,4.277 -11.13,12.836 0,11.98 6.85,43.636 26.53,43.636 4.28,0 9.41,-3.421 9.41,-8.554 0,-4.281 -1.71,-8.559 -2.57,-12.836 z m 24.81,-17.969 c -2.57,-1.715 -7.7,-4.277 -11.98,-4.277 -3.42,0 -6.84,1.707 -6.84,7.699 0,2.566 0.85,6.844 1.71,10.269 l 4.27,18.821 c 2.57,9.414 5.14,20.539 6,22.246 l -1.72,1.715 -3.42,-1.715 c -0.86,-0.852 -1.71,-1.707 -3.42,-1.707 -0.86,0 -1.71,0.855 -3.42,0.855 -1.72,0.852 -3.43,0.852 -6.85,0.852 -31.66,0 -40.21,-35.934 -40.21,-48.77 0,-12.836 5.13,-17.968 14.54,-17.968 10.27,0 20.53,5.988 23.1,5.988 2.57,0 5.99,-5.988 11.13,-5.988 5.98,0 14.54,6.843 16.25,8.558 l 0.86,3.422" /><path
         id="path98"
         style="fill:#c5a517;fill-opacity:1;fill-rule:evenodd;stroke:none"
         d="m 932.152,226.754 c -3.422,-2.566 -11.98,-9.41 -17.968,-9.41 -4.278,0 -11.121,2.566 -11.121,11.98 0,0.852 0.855,3.422 1.71,5.133 l 10.266,47.059 c 1.711,6.843 4.277,17.968 4.277,21.39 0,0.856 0,2.567 -3.421,2.567 l -6.844,1.711 0.855,1.714 c 6.844,1.707 15.403,4.278 18.824,4.278 0.856,0 2.567,-0.856 2.567,-1.715 0,-0.856 0,-1.711 0,-3.422 l -15.402,-59.894 c -0.856,-5.133 -2.567,-10.266 -2.567,-16.258 0,-5.133 1.711,-7.699 5.133,-7.699 5.988,0 11.125,4.281 14.547,5.988 l -0.856,-3.422" /><path
         id="path100"
         style="fill:#c5a517;fill-opacity:1;fill-rule:evenodd;stroke:none"
         d="m 957.82,254.133 c -2.566,-0.856 -4.277,-0.856 -5.988,-0.856 -0.855,0 -1.711,0.856 -1.711,0.856 0,0.859 4.277,25.672 21.391,25.672 6.843,0 9.41,-4.282 9.41,-11.121 0,-8.559 -7.699,-11.981 -15.399,-13.692 z m 27.383,-23.102 c -3.426,-2.562 -14.547,-6.843 -23.101,-6.843 -11.125,0 -13.692,7.699 -13.692,16.257 0,5.133 0,5.993 0.856,6.844 0.855,0.856 5.132,1.711 9.41,2.566 l 7.703,0.86 c 8.555,1.711 17.113,4.277 19.68,7.695 3.421,3.426 5.132,7.703 5.132,12.836 0,9.414 -6.843,12.836 -15.402,12.836 -25.668,0 -38.504,-27.379 -38.504,-47.059 0,-12.835 6.848,-19.679 18.824,-19.679 11.981,0 23.106,5.988 28.239,9.41 l 0.855,4.277" /><path
         id="path102"
         style="fill:#c5a517;fill-opacity:1;fill-rule:evenodd;stroke:none"
         d="m 1036.54,247.289 c -1.71,-6.844 -3.42,-14.543 -5.99,-17.113 -4.28,-5.133 -11.12,-7.699 -13.69,-7.699 -7.7,0 -11.12,5.132 -11.12,13.687 0,11.125 5.99,43.641 26.52,43.641 4.28,0 8.56,-3.422 8.56,-8.559 0,-4.277 -0.86,-8.555 -1.71,-12.836 z m 24.81,-17.965 c -2.56,-1.715 -7.7,-4.281 -11.97,-4.281 -3.43,0 -6.85,1.711 -6.85,7.703 0,2.567 0.85,6.844 1.71,10.266 l 4.28,18.824 c 1.71,9.41 5.13,20.535 5.99,22.246 l -1.71,0.856 -3.42,-0.856 c -0.86,-0.855 -2.57,-1.711 -3.43,-1.711 -0.85,0 -1.71,0.856 -3.42,0.856 -1.71,0.855 -3.42,0.855 -6.85,0.855 -31.66,0 -40.211,-35.937 -40.211,-48.769 0,-12.836 5.141,-17.969 14.551,-17.969 10.27,0 20.53,5.988 23.1,5.988 2.56,0 5.99,-5.988 11.12,-5.988 5.99,0 14.55,6.844 16.26,8.554 l 0.85,3.426" /><path
         id="path104"
         style="fill:#c5a517;fill-opacity:1;fill-rule:evenodd;stroke:none"
         d="m 1081.89,220.766 c -2.57,-0.856 -5.99,-2.567 -9.41,-2.567 -1.71,0 -3.43,3.422 -3.43,5.133 0,0.856 0,1.711 0,2.566 l 10.27,38.504 c 0.86,2.567 0.86,5.137 0.86,7.7 0,4.281 -3.42,5.136 -5.14,5.136 -2.56,0 -4.27,-0.855 -6.84,-0.855 l 0.85,2.566 c 2.57,1.711 9.41,5.133 13.7,5.133 1.71,0 3.42,-0.855 4.27,-2.566 1.71,-1.711 2.57,-2.567 3.43,-2.567 2.56,0 4.27,0.856 7.7,2.567 2.56,1.711 5.99,2.566 11.12,2.566 2.57,0 4.28,-0.855 4.28,-1.711 0.85,-0.855 1.71,-2.566 1.71,-4.277 0,-0.856 -0.86,-1.711 -1.71,-2.571 l -3.42,-5.984 h -1.72 c 0,1.707 -2.56,6.844 -8.55,6.844 -6.85,0 -10.27,-5.992 -12.84,-16.258 l -6.84,-25.668 c -0.86,-2.57 -1.72,-5.133 -1.72,-6.848 0,-4.277 1.72,-5.132 3.43,-5.988 v -0.855" /><path
         id="path106"
         style="fill:#c5a517;fill-opacity:1;fill-rule:evenodd;stroke:none"
         d="m 1128.95,234.457 c -0.86,-2.57 -1.71,-4.281 -1.71,-7.703 0,-1.711 0,-3.422 2.56,-4.277 v -1.711 c -1.71,-0.856 -6.84,-2.567 -9.41,-2.567 -0.85,0 -3.42,2.567 -3.42,5.989 0,0.855 0,0.855 0,1.71 l 10.27,38.504 c 0.85,2.567 1.71,5.137 1.71,6.844 0,5.137 -3.42,5.992 -5.14,5.992 -2.56,0 -4.27,-0.855 -6.84,-0.855 l 0.85,3.422 c 2.57,0.855 10.27,4.277 14.55,4.277 4.28,0 5.13,-5.133 7.7,-5.133 2.57,0 14.55,5.133 23.1,5.133 11.98,0 12.84,-4.277 12.84,-10.266 0,-1.714 -1.71,-5.132 -1.71,-6.847 l -7.7,-29.09 c 0,-1.715 -0.86,-4.277 -0.86,-6.848 0,-5.133 3.42,-6.843 5.99,-6.843 4.28,0 11.13,4.281 13.69,5.136 l -0.85,-3.426 c -2.57,-1.71 -10.27,-8.554 -17.97,-8.554 -5.99,0 -10.27,5.133 -10.27,10.265 0,1.715 0.86,5.137 0.86,6.848 l 7.7,29.09 c 0,2.566 0.85,5.137 0.85,7.699 0,3.426 -1.71,7.703 -9.41,7.703 -11.12,0 -17.11,-5.988 -20.54,-18.824 l -6.84,-25.668" /><path
         id="path108"
         style="fill:#c5a517;fill-opacity:1;fill-rule:evenodd;stroke:none"
         d="m 1223.07,225.043 c -3.42,-2.566 -11.98,-7.699 -17.97,-7.699 -4.28,0 -10.27,4.277 -10.27,10.265 0,5.137 1.72,10.27 3.42,15.403 l 5.14,19.679 c 0.86,2.567 1.71,6.848 1.71,9.411 0,4.281 -5.99,4.281 -11.12,4.281 v 2.566 c 4.27,1.711 17.11,5.133 19.68,5.133 0.85,0 3.42,-2.566 3.42,-3.422 0,-2.566 -3.42,-13.691 -5.99,-23.101 l -3.42,-13.692 c -1.71,-3.422 -2.57,-9.41 -2.57,-11.98 0,-5.989 3.42,-7.699 5.99,-7.699 4.28,0 9.41,2.566 12.84,4.281 z m -11.98,77.863 c 0,3.422 3.42,5.992 6.85,5.992 4.27,0 5.99,-1.714 5.99,-5.136 0,-4.278 -2.57,-6.844 -6.85,-6.844 -3.42,0 -5.99,1.711 -5.99,5.988" /><path
         id="path110"
         style="fill:#c5a517;fill-opacity:1;fill-rule:evenodd;stroke:none"
         d="m 1245.32,234.457 c -0.86,-2.57 -1.71,-4.281 -1.71,-7.703 0,-1.711 0,-3.422 2.56,-4.277 v -1.711 c -1.71,-0.856 -6.85,-2.567 -9.41,-2.567 -0.85,0 -3.42,2.567 -3.42,5.989 0,0.855 0,0.855 0,1.71 l 10.27,38.504 c 0.85,2.567 1.71,5.137 1.71,6.844 0,5.137 -4.28,5.992 -5.14,5.992 -2.57,0 -5.13,-0.855 -6.84,-0.855 l 0.85,3.422 c 2.57,0.855 10.27,4.277 14.55,4.277 4.28,0 4.28,-5.133 7.7,-5.133 2.57,0 14.54,5.133 22.24,5.133 11.98,0 13.7,-4.277 13.7,-10.266 0,-1.714 -1.72,-5.132 -1.72,-6.847 l -7.7,-29.09 c 0,-1.715 -0.85,-4.277 -0.85,-6.848 0,-5.133 2.57,-6.843 5.99,-6.843 4.28,0 11.12,4.281 13.69,5.136 l -0.86,-3.426 c -2.56,-1.71 -11.12,-8.554 -17.97,-8.554 -5.98,0 -10.26,5.133 -10.26,10.265 0,1.715 0,5.137 0.85,6.848 l 7.7,29.09 c 0,2.566 0.86,5.137 0.86,7.699 0,3.426 -1.71,7.703 -9.41,7.703 -11.13,0 -17.97,-5.988 -21.4,-18.824 l -5.98,-25.668" /><path
         id="path112"
         style="fill:#c5a517;fill-opacity:1;fill-rule:evenodd;stroke:none"
         d="m 1323.18,263.547 c 0,9.414 5.99,16.258 14.55,16.258 9.41,0 13.69,-4.282 13.69,-11.981 0,-10.265 -5.99,-17.109 -15.41,-17.109 -8.55,0 -12.83,5.133 -12.83,12.832 z m 47.06,21.391 -0.86,2.566 -11.12,-4.277 c -0.86,-0.856 -2.56,-0.856 -3.42,-0.856 -1.71,0 -7.7,1.711 -13.69,1.711 -17.97,0 -27.38,-9.41 -27.38,-21.391 0,-5.988 1.71,-8.558 4.27,-10.265 1.72,-1.711 3.43,-2.571 3.43,-4.281 0,-2.567 -5.13,-3.422 -7.7,-6.844 -0.86,-1.711 -1.72,-3.422 -1.72,-5.137 0,-3.418 5.14,-3.418 5.14,-5.988 0,-3.422 -16.26,-5.133 -16.26,-17.965 0,-13.691 11.12,-19.684 24.82,-19.684 20.53,0 34.22,11.981 34.22,24.817 0,5.988 -2.57,8.554 -10.27,12.832 -9.41,4.281 -26.52,5.137 -26.52,11.98 0,1.711 2.57,5.133 4.28,5.133 2.56,0 4.27,0 6.84,0 11.13,0 25.67,5.988 25.67,19.68 0,2.57 0,5.992 0,6.847 0,1.707 0.86,2.567 1.71,3.422 z m -59.9,-71.875 c 0,7.703 6.85,14.546 14.55,14.546 7.7,0 24.81,-4.277 24.81,-14.546 0,-9.411 -6.84,-15.399 -17.97,-15.399 -11.12,0 -21.39,5.133 -21.39,15.399" /><path
         id="path114"
         style="fill:#c5a517;fill-opacity:1;fill-rule:evenodd;stroke:none"
         d="m 1448.96,266.969 c -0.86,3.422 -2.57,12.836 -11.98,12.836 -6.85,0 -11.12,-4.282 -11.12,-9.414 0,-9.411 10.27,-12.832 16.25,-18.821 5.14,-3.425 7.7,-5.992 7.7,-12.836 0,-11.98 -11.12,-21.39 -24.81,-21.39 -7.7,0 -14.55,3.422 -15.4,5.988 0,0.856 -0.86,2.566 -0.86,5.137 0,0.855 0.86,1.707 0.86,2.562 l 3.42,7.703 h 2.57 c 0,-5.988 4.28,-16.257 14.54,-16.257 6,0 11.13,4.277 11.13,10.269 0,15.399 -23.96,17.109 -23.96,32.512 0,11.98 11.98,18.824 24.81,18.824 5.99,0 9.41,-1.711 11.13,-3.422 0.85,-0.855 1.71,-1.711 1.71,-4.277 0,-0.86 0,-1.711 -0.86,-2.567 l -3.42,-6.847 h -1.71" /><path
         id="path116"
         style="fill:#c5a517;fill-opacity:1;fill-rule:evenodd;stroke:none"
         d="m 1472.06,239.59 c 0,11.98 5.13,40.215 23.96,40.215 9.41,0 13.69,-6.844 13.69,-17.969 0,-15.398 -5.99,-39.359 -23.1,-39.359 -10.27,0 -14.55,5.992 -14.55,17.113 z m 10.27,-22.246 c 29.94,0 38.5,29.945 38.5,45.347 0,14.547 -6.84,21.391 -20.53,21.391 -25.67,0 -38.51,-22.246 -38.51,-45.348 0,-15.402 9.42,-21.39 20.54,-21.39" /><path
         id="path118"
         style="fill:#c5a517;fill-opacity:1;fill-rule:evenodd;stroke:none"
         d="m 1572.17,226.754 c -5.13,-3.422 -14.55,-9.41 -26.53,-9.41 -9.41,0 -17.96,5.133 -17.96,19.679 0,11.977 4.28,25.668 10.27,34.223 6.84,8.559 16.25,12.836 26.52,12.836 5.13,0 11.12,-1.711 12.83,-4.277 0.86,-0.856 0.86,-2.567 0.86,-4.282 0,-0.851 -0.86,-1.707 -0.86,-2.562 l -4.27,-8.559 h -2.57 c 0,4.282 -0.86,15.403 -11.12,15.403 -13.7,0 -21.39,-25.672 -21.39,-39.36 0,-11.121 4.27,-16.257 13.68,-16.257 7.71,0 17.12,3.421 21.4,6.843 l -0.86,-4.277" /><path
         id="path120"
         style="fill:#c5a517;fill-opacity:1;fill-rule:evenodd;stroke:none"
         d="m 1613.24,225.043 c -3.42,-2.566 -11.98,-7.699 -17.97,-7.699 -5.13,0 -10.27,4.277 -10.27,10.265 0,5.137 1.71,10.27 3.43,15.403 l 5.13,19.679 c 0.86,2.567 1.71,6.848 1.71,9.411 0,4.281 -5.99,4.281 -11.12,4.281 v 2.566 c 3.42,1.711 16.26,5.133 19.68,5.133 0.85,0 3.42,-2.566 3.42,-3.422 0,-2.566 -3.42,-13.691 -5.99,-23.101 l -3.42,-13.692 c -1.71,-3.422 -3.42,-9.41 -3.42,-11.98 0,-5.989 4.28,-7.699 6.84,-7.699 4.28,0 9.41,2.566 12.83,4.281 z m -11.98,77.863 c 0,3.422 3.42,5.992 6.85,5.992 3.42,0 5.98,-1.714 5.98,-5.136 0,-4.278 -3.42,-6.844 -6.84,-6.844 -3.42,0 -5.99,1.711 -5.99,5.988" /><path
         id="path122"
         style="fill:#c5a517;fill-opacity:1;fill-rule:evenodd;stroke:none"
         d="m 1640.62,254.133 c -1.71,-0.856 -4.28,-0.856 -5.99,-0.856 -0.85,0 -1.71,0.856 -1.71,0.856 0,0.859 4.28,25.672 21.39,25.672 6.85,0 9.41,-4.282 9.41,-11.121 0,-8.559 -6.84,-11.981 -14.54,-13.692 z m 28.24,-23.102 c -4.28,-2.562 -14.55,-6.843 -23.96,-6.843 -11.12,0 -13.69,7.699 -13.69,16.257 0,5.133 0,5.993 0.85,6.844 0.86,0.856 5.99,1.711 10.27,2.566 l 7.7,0.86 c 7.7,1.711 16.26,4.277 18.83,7.695 3.42,3.426 5.99,7.703 5.99,12.836 0,9.414 -7.71,12.836 -16.26,12.836 -25.67,0 -37.65,-27.379 -37.65,-47.059 0,-12.835 5.99,-19.679 17.97,-19.679 11.98,0 23.1,5.988 29.09,9.41 l 0.86,4.277" /><path
         id="path124"
         style="fill:#c5a517;fill-opacity:1;fill-rule:evenodd;stroke:none"
         d="m 1709.07,225.043 c -3.42,-2.566 -11.98,-7.699 -18.82,-7.699 -4.28,0 -9.41,2.566 -9.41,9.41 0,3.422 0.85,5.992 1.71,9.41 l 7.7,35.082 c 0,0.856 0.85,2.57 0.85,3.426 0,0.851 -0.85,1.711 -3.42,2.566 l -6.84,0.856 0.85,2.566 6.85,1.711 c 4.28,0 4.28,0.856 5.98,4.281 l 6,12.832 h 2.56 v -11.98 c 0,-0.852 0,-1.711 0,-2.566 0,-1.711 1.71,-2.567 3.42,-2.567 l 11.13,-1.711 -0.86,-2.566 -11.98,-1.711 c -3.42,0 -5.13,-1.711 -5.13,-5.137 l -6.84,-25.668 c -0.86,-4.277 -1.72,-10.265 -1.72,-12.832 0,-5.992 2.57,-8.558 7.7,-8.558 4.28,0 8.56,2.566 11.13,4.281 l -0.86,-3.426" /><path
         id="path126"
         style="fill:#c5a517;fill-opacity:1;fill-rule:evenodd;stroke:none"
         d="m 1714.21,199.375 h 2.56 c 11.13,0 22.25,6.844 22.25,19.68 0,3.422 -1.71,18.824 -4.28,32.515 -1.71,12.832 -2.56,24.813 -10.27,24.813 -2.56,0 -5.13,-1.711 -5.99,-2.567 v 3.422 c 3.43,2.567 7.7,6.844 12.84,6.844 6.84,0 8.56,-8.559 10.27,-20.535 3.42,-21.391 3.42,-38.504 5.13,-38.504 2.57,0 20.54,35.937 20.54,48.773 0,1.707 -1.72,3.422 -4.28,3.422 -1.71,0 -2.57,0 -4.28,-0.855 v 2.566 c 4.28,2.567 6.84,5.133 12.84,5.133 3.42,0 5.13,-2.566 5.13,-6.844 0,-11.98 -37.65,-84.711 -53.05,-84.711 -1.71,0 -3.42,1.715 -4.28,1.715 l -5.13,3.422 v 1.711" /></g></g></svg>